<?xml version="1.0" encoding="utf-8"?>
<!-- Generator: Adobe Illustrator 22.1.0, SVG Export Plug-In . SVG Version: 6.00 Build 0)  -->
<svg version="1.1" id="Layer_1" xmlns="http://www.w3.org/2000/svg" xmlns:xlink="http://www.w3.org/1999/xlink" x="0px" y="0px"
	 viewBox="0 0 75 137" enable-background="new 0 0 75 137" xml:space="preserve">
<path d="M30,85.6l-2.9-2.8c-0.2-0.5-0.2-1,0-1.5l11.9-12c0.2-0.2,0.4-0.5,0.3-0.9c0-0.3-0.1-0.7-0.3-0.9L27.6,55.6
	c-0.4-0.4-0.4-1.1,0-1.5l2.9-2.9C30.7,51,31,51,31.2,51c0.3,0.1,0.6,0.1,1,0.2l15.4,16c0.4,0.6,0.4,1.4,0,1.9
	c-0.2,0.2-1,0.9-2.3,2.4c-1.4,1.4-2.9,3-4.7,4.9c-1.8,1.8-3.5,3.6-5.2,5.3c-1.7,1.7-3,3-3.8,3.8c-0.2,0.2-0.5,0.3-0.8,0.3
	C30.5,85.9,30.2,85.8,30,85.6L30,85.6L30,85.6z"/>
</svg>
