<svg width="21" height="35" viewBox="0 0 21 35" xmlns="http://www.w3.org/2000/svg"><title>_14</title><path d="M3.023 34.59L.138 31.753c-.184-.496-.184-1.042 0-1.538l11.894-12.03c.235-.222.36-.534.344-.855.014-.33-.11-.653-.343-.89L.578 4.615c-.413-.418-.413-1.087 0-1.504L3.438.24c.216-.2.518-.282.807-.22.31.057.636.13.98.22l15.4 15.996c.438.576.438 1.372 0 1.948-.183.158-.962.95-2.337 2.375-1.375 1.425-2.945 3.043-4.71 4.852-1.764 1.812-3.506 3.59-5.225 5.332-1.72 1.743-2.99 3.025-3.815 3.846-.19.217-.467.34-.757.34-.288 0-.564-.123-.755-.34h-.002z" fill="#fff" fill-rule="evenodd"/></svg>
