<svg width="14" height="16" viewBox="0 0 14 16" xmlns="http://www.w3.org/2000/svg"><title>R-2</title><path d="M12.923 16c.59-.01 1.068-.498 1.077-1.103V2.76c.006-.297-.11-.582-.32-.786-.2-.207-.473-.322-.757-.32h-1.077v.553c0 .914-.723 1.655-1.615 1.655-.89 0-1.615-.74-1.615-1.655v-.552h-3.23v.552c0 .914-.724 1.655-1.616 1.655-.893 0-1.616-.74-1.616-1.655v-.552H1.077c-.284-.003-.557.112-.757.32-.21.203-.326.488-.32.784v12.137c.01.605.486 1.094 1.077 1.103h11.846zm0-10.483v9.38H1.077v-9.38h11.846zM3.77 8.277V6.62H2.153v1.656H3.77zm0 2.757V9.38H2.153v1.654H3.77zm0 2.76v-1.656H2.153v1.655H3.77zM6.46 8.275V6.62H4.846v1.656h1.616zm0 2.758V9.38H4.846v1.654h1.616zm0 2.76v-1.656H4.846v1.655h1.616zm2.692-5.518V6.62H7.538v1.656h1.616zm0 2.758V9.38H7.538v1.654h1.616zm0 2.76v-1.656H7.538v1.655h1.616zm2.692-5.518V6.62H10.23v1.656h1.616zm0 2.758V9.38H10.23v1.654h1.616zm0 2.76v-1.656H10.23v1.655h1.616zM10.214 3.31c.585 0 1.06-.487 1.06-1.086V1.086c0-.6-.474-1.086-1.06-1.086-.586 0-1.06.486-1.06 1.086v1.138c0 .6.475 1.085 1.06 1.086zm-6.46 0c.584 0 1.058-.487 1.06-1.086V1.086C4.813.486 4.337 0 3.753 0 3.166 0 2.69.486 2.69 1.086v1.138c.002.6.476 1.085 1.06 1.086z" fill="#FFF" fill-rule="evenodd"/></svg>
