<svg width="21" height="23" viewBox="0 0 21 23" xmlns="http://www.w3.org/2000/svg"><title>icon/interface/check</title><path d="M20.813 1.942c.09-.12.143-.262.156-.41.017-.135.027-.27.03-.406l-1.594-1c-.183-.078-.38-.12-.578-.125-.15-.007-.3.037-.422.126L9.594 14.532c-.108.106-.255.162-.406.156-.143.01-.282-.047-.375-.156l-6.22-5.187c-.107-.105-.254-.162-.405-.156-.143-.01-.282.046-.375.155L.188 10.94c-.167.244-.167.567 0 .812l9 10.187c.48.29.813.29 1 0 .104-.105.713-1.205 1.828-3.3 1.115-2.097 2.323-4.383 3.625-6.86l5.173-9.844v.006z" fill="#09F" fill-rule="evenodd"/></svg>
