 <svg width="32" height="32" viewBox="0 0 32 32" xmlns="http://www.w3.org/2000/svg"><title>icon/interface/close</title><path d="M31.75 29.125c.09-.218.126-.453.11-.687-.01-.265-.128-.514-.328-.687l-11.78-11.815 11.78-11.81c.204-.077.332-.282.312-.5-.005-.262-.118-.51-.312-.688L28.938.34c-.095-.204-.306-.33-.53-.315-.255.002-.496.117-.657.313L15.94 12.125 4.126.125c-.443-.167-.932-.167-1.375 0L.127 2.75c-.09.218-.132.452-.125.688-.006.236.036.47.126.688l12 11.813L.344 27.747c-.205.078-.332.282-.312.5.005.262.118.51.312.688l2.594 2.59c.096.203.306.327.53.312.255-.002.496-.117.658-.313l11.812-11.777 12 12c.107.19.314.3.53.28.25.002.487-.1.658-.28l2.625-2.625v.002z" fill="#FFF" fill-rule="evenodd"/></svg>
