<svg width="41" height="46" viewBox="0 0 41 46" xmlns="http://www.w3.org/2000/svg"><title>02</title><g fill="none" fill-rule="evenodd"><path d="M38.417 9.588L23.084.683c-1.57-.91-3.6-.91-5.168 0L2.584 9.588C.99 10.513 0 12.238 0 14.09v17.808c0 1.85.99 3.576 2.584 4.502l15.332 8.904c.785.455 1.678.696 2.584.696.906 0 1.8-.24 2.584-.696L38.416 36.4C40.01 35.474 41 33.75 41 31.898V14.09c0-1.852-.99-3.577-2.583-4.502z" fill="#09F" fill-rule="nonzero"/><path d="M13.77 19.87c.563 0 1.044-.198 1.442-.594.397-.396.596-.875.596-1.437s-.2-1.04-.596-1.437c-.398-.396-.88-.594-1.443-.594-.565 0-1.046.197-1.443.593-.398.396-.596.875-.596 1.436 0 .56.2 1.04.597 1.436.397.396.878.594 1.442.594zm4.768-2.03c0 1.31-.463 2.43-1.39 3.358-.928.927-2.054 1.39-3.38 1.39-1.315 0-2.44-.463-3.37-1.39C9.465 20.27 9 19.15 9 17.838c0-1.31.466-2.43 1.397-3.357.932-.927 2.056-1.39 3.372-1.39 1.315 0 2.44.463 3.37 1.39.933.93 1.398 2.048 1.398 3.36zm9.73 9.295c0-.562-.197-1.04-.595-1.436-.397-.397-.878-.595-1.442-.595-.563 0-1.044.198-1.442.594-.397.394-.596.873-.596 1.435s.2 1.04.596 1.437c.398.395.88.593 1.443.593.565 0 1.046-.198 1.443-.593.398-.396.596-.875.596-1.437zm2.732 0c0 1.31-.466 2.43-1.397 3.358-.932.928-2.056 1.392-3.372 1.392-1.315 0-2.44-.464-3.37-1.392-.933-.928-1.398-2.047-1.398-3.358 0-1.32.465-2.44 1.397-3.365.93-.923 2.055-1.385 3.37-1.385 1.317 0 2.44.464 3.373 1.392.93.928 1.397 2.047 1.397 3.358zM24.192 13h1.95L15.78 32h-1.987l10.397-19z" fill="#FFF"/></g></svg>
