<svg width="22" height="29" viewBox="0 0 22 29" xmlns="http://www.w3.org/2000/svg"><title>_15 copy</title><path d="M9 15.347l-6-5.34c-.178-.095-.376-.148-.578-.155-.156-.008-.31.05-.422.156l-1.812 1.59c-.09.128-.135.282-.125.438 0 .195.044.387.125.563l10 9.218c.352.296.866.296 1.218 0 .146-.104.677-.567 1.594-1.39.917-.824 1.943-1.76 3.078-2.813 1.133-1.052 2.248-2.093 3.344-3.125 1.096-1.03 1.893-1.798 2.39-2.3.082-.176.124-.368.126-.562.01-.155-.035-.31-.125-.437v.008l-1.625-1.6c-.17-.1-.365-.153-.563-.156-.16-.01-.32.047-.437.156l-6.375 5.877V.817C12.79.377 12.44.027 12 .005H9.813c-.242-.03-.483.065-.64.25C9.057.42 8.996.617 9 .818v14.53zm13 12.66H0v-2h22v2z" fill="#09F" fill-rule="evenodd"/></svg>
