<svg width="11" height="17" viewBox="0 0 11 17" xmlns="http://www.w3.org/2000/svg"><title>l</title><path d="M5.5 0c.735-.004 1.463.137 2.14.415 1.323.536 2.375 1.553 2.93 2.83.288.654.434 1.358.43 2.068-.014 1.396-.306 2.777-.86 4.067-.53 1.3-1.162 2.56-1.89 3.768C7.417 14.485 6.498 15.77 5.5 17c-.996-1.23-1.915-2.515-2.75-3.852C2.024 11.94 1.39 10.68.86 9.38.306 8.09.014 6.71 0 5.313c-.004-.71.142-1.414.43-2.067C.985 1.968 2.037.95 3.36.416 4.037.135 4.765-.005 5.5 0zm0 8.5c1.823 0 3.3-1.427 3.3-3.187 0-1.76-1.477-3.188-3.3-3.188-1.823 0-3.3 1.427-3.3 3.188C2.2 7.073 3.677 8.5 5.5 8.5z" fill="#FFF" fill-rule="evenodd"/></svg>
