<svg width="72" height="50" xmlns="http://www.w3.org/2000/svg"><g fill="#09F" fill-rule="evenodd"><path d="M17.41 39.377c-5.087 0-8.779-3.604-8.779-8.572 0-4.756 3.785-8.626 8.44-8.626 4.714 0 8.27 3.76 8.27 8.74 0 4.744-3.484 8.458-7.93 8.458zM32.043.014h-5.104c-.72 0-1.308.59-1.308 1.31v15.8l-.006.075c-2.54-1.906-5.37-2.764-9.063-2.764-4.15 0-7.86 1.427-10.724 4.125a16.497 16.497 0 0 0-5.33 12.132c0 5.013 2.077 9.566 5.845 12.82 2.745 2.398 6.274 3.665 10.209 3.665 3.419 0 6.392-.947 9.063-2.894l.006.008v.83c0 .722.588 1.314 1.308 1.314h5.104c.72 0 1.309-.592 1.309-1.314V1.325c0-.721-.59-1.31-1.309-1.31zM68.714 27.094H56.515V1.32c0-.721-.589-1.31-1.31-1.31h-5.103c-.72 0-1.308.589-1.308 1.31l.013 32.194c0 .721.588 1.312 1.309 1.312h18.598c.732 0 1.31-.607 1.31-1.326v-5.093c0-.723-.59-1.312-1.31-1.312"/><path d="M68.707 38.687l-23.768.005-.005-37.373c0-.72-.59-1.31-1.31-1.31H38.52c-.72 0-1.309.59-1.309 1.31v43.747c0 .722.59 1.313 1.31 1.363h30.186c.722-.05 1.31-.664 1.31-1.386v-5.038c0-.72-.6-1.315-1.31-1.318"/></g></svg>
