<svg width="40px" height="49px" viewBox="0 0 40 49" version="1.1" xmlns="http://www.w3.org/2000/svg" xmlns:xlink="http://www.w3.org/1999/xlink">
    <defs>
        <polygon id="path-1" points="0.0360202772 0.000656000854 5.60349029 0.000656000854 5.60349029 4.64667272 0.0360202772 4.64667272"></polygon>
        <polygon id="path-3" points="0.208010227 0.000656000854 5.7834542 0.000656000854 5.7834542 4.64667272 0.208010227 4.64667272"></polygon>
        <polygon id="path-5" points="0.0196874187 0.224516292 5.33089103 0.224516292 5.33089103 4.92000641 0.0196874187 4.92000641"></polygon>
        <polygon id="path-7" points="0.272186812 0.000656000854 4.7972685 0.000656000854 4.7972685 4.64667272 0.272186812 4.64667272"></polygon>
        <polygon id="path-9" points="0.066238815 0.201720263 29.565471 0.201720263 29.565471 32.3795735 0.066238815 32.3795735"></polygon>
        <polygon id="path-11" points="0.166380685 0.0170560222 6.25490738 0.0170560222 6.25490738 4.64667272 0.166380685 4.64667272"></polygon>
    </defs>
    <g id="Symbols" stroke="none" stroke-width="1" fill="none" fill-rule="evenodd">
        <g id="O-/-Header" transform="translate(-40.000000, -13.000000)">
            <g id="A-/-Logo-/-Medio_AGCO" transform="translate(40.000000, 13.000000)">
                <g id="Page-1">
                    <g>
                        <polygon id="Fill-1" fill="#1C1A0E" points="0.090820592 44.0790481 0.090820592 48.7249008 1.36500353 48.7249008 1.36500353 47.121252 4.22710326 47.121252 4.22710326 46.0194439 1.36500353 46.0194439 1.36500353 45.1969828 4.3678848 45.1969828 4.3678848 44.0790481"></polygon>
                        <polygon id="Fill-2" fill="#1C1A0E" points="5.91474948 48.7250101 7.1806835 48.7250101 7.1806835 44.0791574 5.91474948 44.0791574"></polygon>
                        <g id="Group-37" transform="translate(0.000000, 0.071613)">
                            <g id="Group-5" transform="translate(8.798846, 44.006724)">
                                <mask id="mask-2" fill="white">
                                    <use xlink:href="#path-1"></use>
                                </mask>
                                <g id="Clip-4"></g>
                                <path d="M0.0360202772,4.64678205 L0.0360202772,0.000656000854 L2.02153494,0.000656000854 C2.78236019,1.1024641 3.5434604,2.2042722 4.31280952,3.31455365 C4.33783124,3.31455365 4.33783124,3.31455365 4.33783124,0.000656000854 L5.60349029,0.000656000854 L5.60349029,4.64678205 L3.6509713,4.64678205 C2.87337325,3.5365006 2.09577521,2.42649249 1.32642608,1.32468439 C1.31817717,2.42649249 1.32615112,3.5365006 1.3179022,4.64678205 L0.0360202772,4.64678205" id="Fill-3" fill="#1C1A0E" mask="url(#mask-2)"></path>
                            </g>
                            <g id="Group-8" transform="translate(21.722152, 44.006724)">
                                <mask id="mask-4" fill="white">
                                    <use xlink:href="#path-3"></use>
                                </mask>
                                <g id="Clip-7"></g>
                                <path d="M0.208010227,4.64678205 L0.208010227,0.000656000854 C0.869573485,0.000656000854 1.53141171,0.00858267784 2.20149885,0.0170560222 C2.96287402,1.11066411 3.72369926,2.21274555 4.48479947,3.31455365 C4.50982119,3.31455365 4.49359832,3.31455365 4.49359832,0.000656000854 L5.7834542,0.000656000854 L5.7834542,4.64678205 L3.82268628,4.64678205 C3.05361212,3.54470061 2.27628904,2.44289251 1.5154638,1.34928442 C1.50721488,2.44289251 1.51491387,3.54470061 1.50666495,4.64678205 L0.208010227,4.64678205" id="Fill-6" fill="#1C1A0E" mask="url(#mask-4)"></path>
                            </g>
                            <g id="Group-11" transform="translate(28.321287, 43.733390)">
                                <mask id="mask-6" fill="white">
                                    <use xlink:href="#path-5"></use>
                                </mask>
                                <g id="Clip-10"></g>
                                <path d="M1.11184422,4.92011574 C0.408486441,4.62409535 0.185490679,4.46774848 0.0196874187,3.69476081 L0.0196874187,1.44987122 C0.251482027,0.602810118 0.491525553,0.364189807 1.41787909,0.224516292 L3.75892214,0.224516292 C4.22251136,0.290389711 4.58628866,0.323189754 4.96683877,0.611010129 C5.24812689,1.01390399 5.26462472,1.48267126 5.27287364,1.96783856 L4.00721459,1.96783856 C3.9491972,1.60594476 3.96597,1.54034467 3.59339385,1.4334712 L1.88119335,1.4334712 C1.49239432,1.55674469 1.40138126,1.63901813 1.31861711,2.050112 C1.31861711,2.62547942 1.1035953,3.45641383 1.74866072,3.71116083 L3.70117972,3.71116083 C4.00721459,3.59608735 4.02371243,3.40694044 4.06495702,3.09452003 L5.33089103,3.09452003 C5.30586932,3.9907812 5.31411823,4.5336219 4.39573865,4.92011574 L1.11184422,4.92011574" id="Fill-9" fill="#1C1A0E" mask="url(#mask-6)"></path>
                            </g>
                            <g id="Group-14" transform="translate(34.645457, 44.006724)">
                                <mask id="mask-8" fill="white">
                                    <use xlink:href="#path-7"></use>
                                </mask>
                                <g id="Clip-13"></g>
                                <polygon id="Fill-12" fill="#1C1A0E" mask="url(#mask-8)" points="0.272186812 4.64678205 0.272186812 0.000656000854 4.73925111 0.000656000854 4.73925111 1.09426409 1.54609478 1.09426409 1.54609478 1.80957836 4.57399778 1.80957836 4.57399778 2.76351293 1.54609478 2.76351293 1.54609478 3.47910053 4.7972685 3.47910053 4.7972685 4.64678205"></polygon>
                            </g>
                            <path d="M13.8563132,42.4695773 C12.9131869,42.3955039 12.1273399,42.3624305 11.3249951,41.8362631 C10.8699298,41.3346958 10.7624189,40.8003285 10.6961526,40.1421409 C10.6961526,38.5961656 10.2826068,36.4581495 12.0363268,35.7346352 C13.5337805,35.3973414 15.0144614,35.4878149 16.5531596,35.4878149 C17.4712642,35.5372883 18.5466482,35.5700883 19.2582549,36.2113291 C19.6055344,36.6718964 19.647054,37.1160637 19.6965475,37.6753044 L17.7937969,37.6753044 C17.7360545,37.0665903 17.2727403,37.1242637 16.7764303,37.0504636 L13.7405534,37.0504636 C12.7476586,37.1816637 12.5989031,37.5520309 12.5161389,38.4977655 C12.5161389,39.1720797 12.408628,39.9860674 12.7726803,40.5863082 C13.1364576,40.8003285 13.392999,40.8741285 13.8230426,40.9151286 L16.5033911,40.9151286 C17.6120458,40.8246552 17.7690502,40.7672551 17.7937969,39.649047 L15.0639549,39.649047 L15.0639549,38.2755452 L19.6965475,38.2755452 C19.6880236,39.1802797 19.7130453,40.1257409 19.547517,41.0140754 C19.1009756,42.1899569 18.1990938,42.2804304 17.0824652,42.4285772 C16.0070812,42.4365039 14.9316972,42.4529039 13.8563132,42.4695773" id="Fill-15" fill="#1C1A0E"></path>
                            <path d="M23.4190919,42.4695773 C22.5422319,42.3709038 21.6901186,42.3214304 21.0447782,41.6799163 C20.9457912,41.5238427 20.8465292,41.3677692 20.7552412,41.211149 C20.6642281,40.8082551 20.573215,40.4381613 20.5402193,40.0270674 C20.5402193,38.7443124 20.374966,37.4287574 21.0447782,36.2856759 C21.7151403,35.6192884 22.5917254,35.5621616 23.501856,35.5206149 C24.9990347,35.5206149 26.5294841,35.4304148 28.001916,35.6854351 C29.2013087,36.0388556 29.375086,36.6885698 29.4331033,37.8890513 L27.5303528,37.8890513 C27.4726104,37.1078636 26.8025233,37.1242637 26.1241872,37.0832636 L23.70038,37.0832636 C22.7737515,37.1655371 22.4594677,37.3052106 22.3849525,38.2755452 L22.3849525,39.7556471 C22.5089612,40.5371081 22.5755025,40.6767816 23.311306,40.8908019 C23.6176159,40.9151286 23.6176159,40.9151286 26.3722047,40.9151286 C26.8107722,40.8741285 27.224318,40.8659285 27.4891082,40.4958347 C27.5056061,40.3397612 27.5303528,40.1834143 27.5553745,40.0270674 L29.4331033,40.0270674 C29.4080816,40.989202 29.3503392,41.6965896 28.4157367,42.1486835 C26.8437679,42.6256508 25.0402793,42.4613773 23.4190919,42.4695773" id="Fill-17" fill="#1C1A0E"></path>
                            <g id="Group-21">
                                <mask id="mask-10" fill="white">
                                    <use xlink:href="#path-9"></use>
                                </mask>
                                <g id="Clip-20"></g>
                                <path d="M19.7544824,0.201638263 L19.8122248,0.201638263 C23.0633985,5.51387851 26.3145722,10.8343188 29.565471,16.154759 C29.1024317,16.4425794 29.1024317,16.4425794 0.066238815,32.3795735 C0.0909855703,32.3137001 0.11600729,32.2560267 0.140479081,32.1986266 C6.67582219,21.5328727 13.2108903,10.8673921 19.7544824,0.201638263" id="Fill-19" fill="#D22630" mask="url(#mask-10)"></path>
                            </g>
                            <path d="M3.81355748,32.3794642 C4.22710326,32.0916438 4.22710326,32.0916438 29.656594,16.40967 C29.7806028,16.40967 29.9128604,16.7551638 29.95438,16.8702373 C22.3934214,22.034604 14.8407116,27.1986974 7.28800193,32.3627908 C6.12985378,32.3627908 4.97170563,32.3712641 3.81355748,32.3794642" id="Fill-22" fill="#D22630"></path>
                            <path d="M10.8202988,32.3794642 C17.2646288,27.3714443 23.7086839,22.3634244 30.1609879,17.3554046 C30.1939836,17.3390046 30.2272542,17.3308046 30.2605249,17.3226046 C30.6160532,17.8900453 30.6160532,17.8900453 30.6243022,17.9638454 C25.2473822,22.7581183 19.8704622,27.5523912 14.5015161,32.3466641 C13.2688527,32.3545908 12.0447132,32.3627908 10.8202988,32.3794642" id="Fill-24" fill="#D22630"></path>
                            <path d="M17.8518693,32.3794642 C22.2444184,27.8238116 26.6369675,23.268159 31.0297915,18.7125064 C31.0545383,18.695833 31.07901,18.687633 31.1125556,18.679433 C31.2280405,18.8849799 31.5508482,19.2796738 31.5508482,19.5100941 C28.1921636,23.7861263 24.8420028,28.0703585 21.4915671,32.3545908 C20.2754016,32.3627908 19.059511,32.3712641 17.8518693,32.3794642" id="Fill-26" fill="#D22630"></path>
                            <path d="M24.8833299,32.3794642 C27.3318839,28.4568524 29.7889617,24.5345139 32.2454896,20.6201022 L32.303507,20.6201022 C32.4192668,20.8669225 32.4192668,20.8669225 34.942611,25.0770813 C36.4315407,27.5111178 37.9204705,29.9454277 39.4179242,32.3794642 L24.8833299,32.3794642" id="Fill-28" fill="#D22630"></path>
                            <path d="M33.6520952,42.4695773 C32.4441785,42.3791038 31.1785195,42.4201039 30.5994454,41.1783489 C30.343179,40.1339409 30.4091704,39.0813329 30.4091704,38.0041248 C30.4919345,37.2806105 30.5664497,36.6554964 31.0792575,36.104729 C31.7743664,35.5864883 32.5351916,35.5700883 33.379056,35.4878149 C34.8102433,35.4878149 36.2744263,35.3891414 37.680592,35.6523617 C37.9951507,35.7346352 38.2846878,35.8743087 38.5739498,36.0224556 C39.244037,36.5980963 39.3103033,37.3382839 39.4013164,38.1686717 C39.4013164,39.2953532 39.5583208,40.6191082 38.9712727,41.6307162 C38.3919237,42.2804304 37.6063517,42.3296304 36.7707363,42.4285772 C35.7283479,42.4365039 34.6862346,42.4529039 33.6520952,42.4695773 M33.5940778,40.9069286 C33.0152787,40.8164551 32.6347286,40.8082551 32.3366676,40.2738878 C32.204135,39.5173001 32.1711393,38.6210389 32.3119209,37.864178 C32.5351916,37.2721372 32.7587373,37.2478105 33.3460603,37.1078636 C33.7348593,37.0832636 33.7348593,37.0832636 36.0264089,37.0832636 C36.9277407,37.1570637 37.4243256,37.2311371 37.5483343,38.1932717 L37.5483343,39.8379205 C37.4243256,40.7013817 36.9692602,40.8331285 36.1336448,40.8908019 C35.2818065,40.8908019 34.4376672,40.8987286 33.5940778,40.9069286" id="Fill-30" fill="#1C1A0E"></path>
                            <path d="M2.74963948e-05,42.4695773 L2.74963948e-05,42.3460305 C1.28218439,40.0601408 2.56461624,37.7821779 3.84649816,35.5044882 C4.80612234,35.5126882 5.7742704,35.5206149 6.74186853,35.5288149 C8.0325493,37.8398513 9.33120403,40.1506143 10.6298588,42.4695773 L8.47909075,42.4695773 C8.17305588,41.9185366 7.87526993,41.3677692 7.57748397,40.8164551 L3.01115769,40.8164551 C2.12577378,42.3955039 2.12577378,42.3955039 2.10927594,42.4695773 L2.74963948e-05,42.4695773 Z M3.84649816,39.3691533 C4.3183363,38.5305655 4.7896245,37.6919777 5.26943659,36.8610433 C5.29418335,36.8446433 5.32745399,36.8282433 5.36044966,36.8200433 C5.82376391,37.658631 6.28707816,38.4977655 6.75864133,39.3445532 C5.78251932,39.3530266 4.81437126,39.3612266 3.84649816,39.3691533 Z" id="Fill-32" fill="#1C1A0E"></path>
                            <g id="Group-36" transform="translate(14.848053, 44.006724)">
                                <mask id="mask-12" fill="white">
                                    <use xlink:href="#path-11"></use>
                                </mask>
                                <g id="Clip-35"></g>
                                <path d="M0.166380685,4.64678205 C0.588175381,3.70104749 0.588175381,3.70104749 2.35839328,0.0170560222 L4.02934919,0.0170560222 C6.04813449,4.16161475 6.04813449,4.16161475 6.25490738,4.64678205 L4.82344507,4.64678205 C4.69943633,4.36716169 4.58367651,4.10366801 4.46791668,3.82377431 C3.62432729,3.82377431 2.78046294,3.81612097 1.9448475,3.82432098 C1.60554199,4.57270862 1.60554199,4.57270862 1.59756803,4.64678205 L0.166380685,4.64678205 Z M2.42465959,2.79631297 C2.67295203,2.24554559 2.92096951,1.69450487 3.16898699,1.15166417 L3.22700439,1.15166417 C3.42580332,1.64530481 3.42580332,1.67701152 3.96335784,2.80369298 C3.45027511,2.81189299 2.93774231,2.78811296 2.42465959,2.79631297 Z" id="Fill-34" fill="#1C1A0E" mask="url(#mask-12)"></path>
                            </g>
                        </g>
                    </g>
                </g>
            </g>
        </g>
    </g>
</svg>