<svg width="187" height="50" xmlns="http://www.w3.org/2000/svg"><g fill="#09F" fill-rule="evenodd"><path d="M17.41 39.377c-5.087 0-8.779-3.604-8.779-8.572 0-4.756 3.785-8.626 8.44-8.626 4.714 0 8.27 3.76 8.27 8.74 0 4.744-3.484 8.458-7.93 8.458zM32.043.014h-5.104c-.72 0-1.308.59-1.308 1.31v15.8l-.006.075c-2.54-1.906-5.37-2.764-9.063-2.764-4.15 0-7.86 1.427-10.724 4.125a16.497 16.497 0 0 0-5.33 12.132c0 5.013 2.077 9.566 5.845 12.82 2.745 2.398 6.274 3.665 10.209 3.665 3.419 0 6.392-.947 9.063-2.894l.006.008v.83c0 .722.588 1.314 1.308 1.314h5.104c.72 0 1.309-.592 1.309-1.314V1.325c0-.721-.59-1.31-1.309-1.31zM68.714 27.094H56.515V1.32c0-.721-.589-1.31-1.31-1.31h-5.103c-.72 0-1.308.589-1.308 1.31l.013 32.194c0 .721.588 1.312 1.309 1.312h18.598c.732 0 1.31-.607 1.31-1.326v-5.093c0-.723-.59-1.312-1.31-1.312"/><path d="M68.707 38.687l-23.768.005-.005-37.373c0-.72-.59-1.31-1.31-1.31H38.52c-.72 0-1.309.59-1.309 1.31v43.747c0 .722.59 1.313 1.31 1.363h30.186c.722-.05 1.31-.664 1.31-1.386v-5.038c0-.72-.6-1.315-1.31-1.318M131.35 33.019c.25.25.55.45.9.6.351.152.755.228 1.216.228.452 0 .826-.073 1.125-.22.302-.144.452-.373.452-.684a.843.843 0 0 0-.097-.414.864.864 0 0 0-.33-.307 2.91 2.91 0 0 0-.616-.248 20.906 20.906 0 0 0-.953-.25 5.842 5.842 0 0 1-.803-.238 2.706 2.706 0 0 1-.716-.399 1.985 1.985 0 0 1-.508-.603c-.132-.236-.196-.517-.196-.847 0-.343.078-.641.234-.897a2.05 2.05 0 0 1 .622-.646c.26-.175.553-.308.878-.398a3.714 3.714 0 0 1 1.013-.136c.591 0 1.1.078 1.525.234a3.5 3.5 0 0 1 1.118.654l-.735.931c-.21-.19-.475-.35-.79-.48-.314-.132-.681-.196-1.102-.196-.432 0-.776.07-1.036.211-.261.14-.39.37-.39.692 0 .3.172.523.517.668.346.147.799.285 1.359.413.331.081.638.174.924.28.285.104.536.24.75.405.216.165.386.368.511.61.124.24.187.53.187.873 0 .35-.08.658-.24.924-.16.265-.375.488-.645.669-.27.18-.581.316-.933.406-.35.09-.715.135-1.094.135-1.321 0-2.313-.356-2.973-1.068l.827-.902M140.973 33.815c.36 0 .686-.07.976-.217.29-.146.535-.336.736-.572.2-.236.353-.506.458-.812a2.863 2.863 0 0 0 0-1.865 2.539 2.539 0 0 0-.466-.82 2.374 2.374 0 0 0-.734-.577 2.106 2.106 0 0 0-.97-.22c-.36 0-.685.074-.976.22a2.303 2.303 0 0 0-.735.57 2.491 2.491 0 0 0-.458.814 2.855 2.855 0 0 0 0 1.87c.105.301.26.573.466.813.204.24.45.433.736.58.284.145.607.216.967.216zm0 1.174c-.54 0-1.037-.098-1.487-.293a3.54 3.54 0 0 1-1.164-.805 3.838 3.838 0 0 1-.765-1.18 3.73 3.73 0 0 1-.278-1.436c0-.512.093-.99.278-1.437.185-.445.44-.839.765-1.182a3.57 3.57 0 0 1 1.164-.802c.45-.195.947-.294 1.487-.294a3.657 3.657 0 0 1 2.644 1.096c.33.343.586.737.772 1.182.186.446.277.925.277 1.437a3.715 3.715 0 0 1-1.05 2.616c-.33.342-.72.61-1.172.805-.45.195-.94.293-1.47.293zM145.824 34.778h1.35v-10.03h-1.35zM148.602 27.786h1.35v4.106c0 .66.135 1.139.406 1.435.271.296.661.444 1.171.444.391 0 .714-.08.97-.24a1.95 1.95 0 0 0 .622-.625c.16-.254.272-.546.339-.872.063-.327.097-.659.097-1v-3.248h1.351v6.277c0 .227.005.466.016.715h-1.29l-.048-1.037c-.09.12-.2.25-.33.39-.13.142-.29.269-.48.385-.191.115-.41.213-.661.291a2.733 2.733 0 0 1-.856.123c-.91 0-1.582-.265-2.012-.79-.43-.527-.645-1.246-.645-2.158v-4.196M157.235 28.914h-1.262v-1.128h1.262V25.5h1.35v2.285h2.042v1.128h-2.041v3.445c0 .56.086.945.263 1.158.174.208.422.314.74.314.262 0 .477-.039.648-.12.17-.08.34-.2.51-.36l.615.827c-.29.28-.587.482-.893.608-.305.125-.667.189-1.088.189-.742 0-1.284-.202-1.628-.603-.346-.401-.518-1.028-.518-1.88v-3.578M162.309 34.779h1.35v-6.993h-1.35v6.993zm-.091-8.24h1.516v-1.52h-1.516v1.52zM168.569 33.815c.36 0 .685-.07.977-.217.29-.146.534-.336.734-.572.201-.236.355-.506.459-.812a2.843 2.843 0 0 0 0-1.865 2.535 2.535 0 0 0-.464-.82 2.393 2.393 0 0 0-.737-.577 2.094 2.094 0 0 0-.97-.22c-.36 0-.685.074-.974.22-.29.145-.536.335-.737.57-.2.237-.353.507-.456.814a2.855 2.855 0 0 0 0 1.87c.103.301.258.573.464.813.206.24.45.433.737.58.283.145.606.216.967.216zm0 1.174c-.54 0-1.035-.098-1.488-.293a3.53 3.53 0 0 1-1.161-.805 3.797 3.797 0 0 1-.767-1.18 3.702 3.702 0 0 1-.278-1.436c0-.512.092-.99.278-1.437.186-.445.44-.839.767-1.182a3.56 3.56 0 0 1 1.161-.802 3.713 3.713 0 0 1 1.488-.294c.53 0 1.021.099 1.472.294.45.195.84.463 1.171.802.33.343.586.737.774 1.182.184.446.277.925.277 1.437 0 .51-.093.99-.277 1.437a3.82 3.82 0 0 1-.774 1.18 3.621 3.621 0 0 1-2.643 1.097zM173.366 29.305V28.5c0-.226-.004-.463-.015-.714h1.29l.046 1.052c.09-.12.2-.254.33-.398.13-.146.29-.28.482-.399a2.83 2.83 0 0 1 1.53-.421c.912 0 1.587.267 2.028.798.44.532.661 1.253.661 2.165v4.195h-1.352v-4.09c0-.651-.14-1.13-.42-1.436-.282-.305-.676-.458-1.187-.458-.39 0-.715.08-.975.24-.262.16-.47.367-.624.624a2.784 2.784 0 0 0-.337.873 4.76 4.76 0 0 0-.106 1v3.247h-1.35v-5.473M181.552 33.019c.25.25.55.45.9.6.352.152.756.228 1.217.228.45 0 .825-.073 1.127-.22.3-.144.45-.373.45-.684a.843.843 0 0 0-.098-.414.87.87 0 0 0-.331-.307 2.885 2.885 0 0 0-.614-.248 21.322 21.322 0 0 0-.955-.25c-.27-.059-.537-.14-.802-.238a2.655 2.655 0 0 1-.713-.399 1.949 1.949 0 0 1-.511-.603c-.132-.236-.195-.517-.195-.847 0-.343.076-.641.232-.897a2.07 2.07 0 0 1 .624-.646c.258-.175.552-.308.877-.398a3.711 3.711 0 0 1 1.014-.136c.591 0 1.098.078 1.525.234.425.154.796.373 1.119.654l-.737.931a2.73 2.73 0 0 0-.788-.48c-.316-.132-.683-.196-1.104-.196-.432 0-.776.07-1.036.211-.26.14-.39.37-.39.692 0 .3.171.523.518.668.345.147.797.285 1.36.413.329.081.636.174.921.28.287.104.537.24.752.405.215.165.384.368.51.61.125.24.189.53.189.873 0 .35-.081.658-.242.924a2.12 2.12 0 0 1-.644.669c-.27.18-.582.316-.931.406-.352.09-.717.135-1.098.135-1.32 0-2.31-.356-2.973-1.068l.827-.902M84.536 29.334v-.805c0-.224-.006-.462-.016-.712h1.292l.045 1.052c.092-.12.201-.254.333-.398.131-.146.293-.279.481-.399a2.72 2.72 0 0 1 .67-.3c.254-.08.542-.121.862-.121.912 0 1.586.265 2.028.797.44.531.66 1.254.66 2.165v4.194H89.54v-4.089c0-.65-.14-1.13-.42-1.435-.281-.307-.676-.46-1.185-.46-.392 0-.717.08-.977.241-.261.16-.469.368-.622.625a2.734 2.734 0 0 0-.341.871c-.07.326-.106.66-.106 1v3.247h-1.352v-5.473M96.826 31.5a2.367 2.367 0 0 0-.232-.037 6.032 6.032 0 0 0-.398-.038l-.48-.03a8.893 8.893 0 0 0-.496-.015c-.38 0-.688.045-.922.135-.237.09-.42.203-.557.34a1.072 1.072 0 0 0-.277.45c-.051.165-.077.323-.077.474 0 .38.132.67.391.865.262.195.622.293 1.082.293.26 0 .507-.046.742-.135a2.2 2.2 0 0 0 .624-.36c.181-.152.327-.327.435-.527.11-.202.165-.408.165-.617V31.5zm.016 2.466c-.26.351-.604.612-1.03.782a3.5 3.5 0 0 1-1.313.257c-.29 0-.577-.038-.864-.114a2.269 2.269 0 0 1-.78-.375 1.976 1.976 0 0 1-.57-.677c-.145-.276-.218-.614-.218-1.016 0-.752.262-1.353.789-1.804.524-.45 1.283-.676 2.275-.676.159 0 .33.005.508.016.182.01.352.018.513.03.16.009.299.019.42.028.12.012.204.021.254.031v-.257c0-.52-.157-.894-.471-1.119-.316-.226-.745-.34-1.285-.34-.53 0-.95.075-1.261.22-.31.145-.57.292-.782.442l-.63-.917a3.588 3.588 0 0 1 1.036-.579 5.003 5.003 0 0 1 1.787-.292c.901 0 1.61.219 2.125.654.515.435.774 1.054.774 1.857v4.068c0 .246.004.454.014.622h-1.261l-.03-.841zM99.56 29.334v-.805c0-.224-.005-.462-.014-.712h1.29l.045 1.052c.09-.12.201-.254.33-.398.13-.146.291-.279.481-.399s.412-.221.668-.3c.255-.08.54-.121.863-.121.91 0 1.585.265 2.026.797.44.531.66 1.254.66 2.165v4.194h-1.35v-4.089c0-.65-.142-1.13-.421-1.435-.28-.307-.675-.46-1.186-.46-.39 0-.715.08-.975.241a1.85 1.85 0 0 0-.624.625 2.784 2.784 0 0 0-.336.871c-.071.326-.106.66-.106 1v3.247H99.56v-5.473M113.333 33.847c-.31.351-.693.633-1.148.849-.455.215-.984.324-1.583.324-.562 0-1.07-.093-1.525-.28a3.299 3.299 0 0 1-1.156-.766 3.345 3.345 0 0 1-.729-1.172 4.241 4.241 0 0 1-.255-1.496c0-.513.09-.993.271-1.445a3.569 3.569 0 0 1 1.914-1.978 3.642 3.642 0 0 1 1.48-.293c.59 0 1.11.106 1.562.316.45.211.833.496 1.156.857l-.887.858a2.306 2.306 0 0 0-.765-.617c-.3-.15-.656-.226-1.066-.226-.36 0-.684.07-.97.205a2.062 2.062 0 0 0-.72.554 2.608 2.608 0 0 0-.45.812 2.919 2.919 0 0 0-.157.957c0 .32.051.634.157.94.105.305.255.576.45.81a2.135 2.135 0 0 0 1.69.775c.41 0 .776-.078 1.104-.233.324-.154.592-.364.802-.624l.825.873M114.523 34.808h1.351v-6.991h-1.35v6.99zm-.09-8.24h1.516V25.05h-1.517v1.52zM121.888 31.5a2.521 2.521 0 0 0-.233-.037 6.089 6.089 0 0 0-.4-.038l-.48-.03a8.85 8.85 0 0 0-.494-.015c-.382 0-.689.045-.924.135-.236.09-.421.203-.556.34a1.072 1.072 0 0 0-.277.45 1.6 1.6 0 0 0-.075.474c0 .38.13.67.39.865.261.195.62.293 1.081.293.26 0 .509-.046.743-.135a2.2 2.2 0 0 0 .623-.36c.182-.152.326-.327.435-.527a1.26 1.26 0 0 0 .167-.617V31.5zm.015 2.466c-.26.351-.604.612-1.03.782-.425.171-.862.257-1.312.257-.292 0-.58-.038-.865-.114a2.272 2.272 0 0 1-.78-.375 1.961 1.961 0 0 1-.57-.677c-.145-.276-.22-.614-.22-1.016 0-.752.263-1.353.79-1.804.526-.45 1.285-.676 2.275-.676.16 0 .33.005.509.016.181.01.35.018.51.03.162.009.303.019.422.028.118.012.206.021.256.031v-.257c0-.52-.159-.894-.473-1.119-.316-.224-.745-.34-1.285-.34-.53 0-.952.075-1.26.22-.31.145-.57.292-.781.442l-.632-.917c.122-.1.267-.2.435-.3.172-.1.372-.194.601-.279.23-.085.49-.154.781-.21.29-.056.625-.082 1.007-.082.9 0 1.609.219 2.124.654.516.435.774 1.054.774 1.857v4.068c0 .246.003.454.014.622h-1.261l-.03-.841zM124.876 34.807h1.35V24.78h-1.35zM81.414 34.808h1.35v-6.993h-1.35v6.993zm-.09-8.24h1.516v-1.52h-1.516v1.52zM79.958 24.694a3.511 3.511 0 0 0-1.088-.172c-.321 0-.626.052-.916.157-.291.107-.549.27-.774.49-.226.22-.405.502-.54.85-.136.345-.203.754-.203 1.225v.571h-1.26v1.129h1.26v5.863h1.352v-5.863h1.996v-1.129h-1.996v-.45c0-.612.116-1.044.352-1.294.235-.251.548-.377.939-.377.229 0 .45.051.664.143l.69-.924a2.462 2.462 0 0 0-.476-.219M77.24 44.892c.16.131.39.256.69.375.3.121.676.182 1.127.182.34 0 .653-.064.938-.188.285-.125.53-.302.735-.527.205-.224.363-.488.473-.789.111-.3.166-.632.166-.993 0-.34-.038-.662-.114-.963a2.327 2.327 0 0 0-.36-.797 1.793 1.793 0 0 0-.637-.547c-.262-.136-.58-.205-.961-.205-.481 0-.892.134-1.232.399-.34.265-.58.654-.72 1.166-.05.16-.08.333-.09.519-.01.186-.015.378-.015.578v1.79zm-1.337-3.955v-.805c0-.226-.005-.464-.014-.713h1.29l.046.992c.07-.09.17-.2.3-.332.13-.13.292-.254.488-.375.195-.12.422-.223.683-.308.26-.086.56-.129.901-.129.54 0 1.009.101 1.404.302.396.2.723.47.983.811.26.341.453.733.578 1.173.125.442.188.909.188 1.399 0 .632-.109 1.178-.323 1.64a3.374 3.374 0 0 1-1.996 1.812 3.913 3.913 0 0 1-1.255.218c-.47 0-.848-.047-1.133-.143a8.854 8.854 0 0 1-.803-.31v3.25h-1.337v-8.482zM88.333 43.102a5.113 5.113 0 0 0-.63-.075l-.481-.03a8.893 8.893 0 0 0-.495-.014c-.38 0-.689.045-.924.134a1.58 1.58 0 0 0-.554.339 1.102 1.102 0 0 0-.278.45c-.05.168-.075.324-.075.475 0 .38.13.668.392.865.258.195.618.294 1.078.294a2.167 2.167 0 0 0 1.365-.498c.181-.15.327-.325.437-.526.11-.2.165-.406.165-.616v-.798zm.016 2.466a2.339 2.339 0 0 1-1.03.783 3.5 3.5 0 0 1-1.313.256c-.291 0-.576-.037-.862-.113a2.262 2.262 0 0 1-.78-.376 1.948 1.948 0 0 1-.57-.677c-.146-.276-.22-.614-.22-1.015 0-.752.264-1.354.79-1.805.524-.45 1.282-.677 2.272-.677.16 0 .33.004.51.016.181.009.352.02.511.029.16.011.3.02.42.03.12.012.205.021.256.032v-.257c0-.52-.158-.895-.472-1.12-.316-.226-.744-.34-1.284-.34-.53 0-.95.074-1.26.22-.311.145-.57.293-.781.443l-.63-.918c.12-.099.265-.2.435-.299.17-.1.37-.193.6-.278.23-.086.49-.158.78-.212.29-.056.625-.082 1.006-.082.9 0 1.61.219 2.123.655.517.435.774 1.055.774 1.856v4.068c0 .246.004.454.016.625h-1.262l-.03-.844zM91.023 40.847v-.76c0-.216-.005-.439-.016-.668h1.291l.045 1.127c.083-.119.186-.252.316-.397.13-.146.288-.28.473-.4.187-.12.401-.223.646-.309.246-.084.528-.128.848-.128.15 0 .288.011.414.03.125.021.242.052.352.091l-.3 1.263a1.938 1.938 0 0 0-.69-.105 1.933 1.933 0 0 0-1.443.625 2.25 2.25 0 0 0-.585 1.51v3.686h-1.351v-5.565M96.941 40.546h-.905v-1.127h.905v-2.286h1.351v2.286h2.041v1.127h-2.04v3.444c0 .562.086.947.26 1.158.176.21.425.316.743.316.262 0 .477-.04.648-.12.17-.081.34-.202.508-.361l.618.827c-.29.279-.59.484-.894.607-.307.127-.669.19-1.088.19-.742 0-1.285-.2-1.63-.601-.345-.402-.517-1.028-.517-1.88v-3.58M102.031 40.937v-.805c0-.226-.004-.464-.014-.713h1.291l.045 1.052c.091-.12.2-.254.33-.4.131-.143.29-.277.48-.396.19-.121.413-.22.668-.303a2.87 2.87 0 0 1 .864-.119c.91 0 1.586.267 2.025.797.441.532.66 1.254.66 2.165v4.197h-1.35V42.32c0-.651-.141-1.13-.421-1.437-.28-.305-.675-.457-1.185-.457-.392 0-.715.079-.977.24-.26.16-.465.367-.62.624-.157.255-.27.546-.338.872-.07.325-.105.66-.105 1v3.249h-1.353v-5.475M114.953 42.306a2.269 2.269 0 0 0-.57-1.384c-.34-.38-.82-.571-1.441-.571-.32 0-.608.055-.864.166a2.06 2.06 0 0 0-.653.435 2.076 2.076 0 0 0-.586 1.353h4.114zm1.217 3.082c-.08.092-.201.206-.36.346-.162.141-.37.276-.624.406a4.68 4.68 0 0 1-.901.339 4.398 4.398 0 0 1-1.178.143 3.972 3.972 0 0 1-1.487-.271 3.284 3.284 0 0 1-1.156-.767 3.459 3.459 0 0 1-.744-1.188 4.33 4.33 0 0 1-.262-1.534c0-.512.085-.989.256-1.436.17-.446.41-.832.719-1.16.311-.323.68-.582 1.105-.772.426-.19.893-.286 1.404-.286.6 0 1.115.115 1.546.346.43.23.783.535 1.058.917.276.38.477.817.609 1.31.13.489.195 1 .195 1.532h-5.511c.01.312.078.597.204.857.124.26.293.486.5.678.213.19.453.34.723.449.27.112.555.167.856.167.59 0 1.075-.1 1.456-.302.38-.2.656-.395.826-.586l.766.812zM117.467 40.847v-.76c0-.216-.005-.439-.014-.668h1.289l.047 1.127c.08-.119.183-.252.314-.397.132-.146.29-.28.473-.4.186-.12.401-.223.646-.309a2.59 2.59 0 0 1 .85-.128c.15 0 .285.011.412.03.125.021.242.052.352.091l-.3 1.263c-.18-.07-.41-.105-.69-.105a1.933 1.933 0 0 0-1.443.625 2.28 2.28 0 0 0-.427.683 2.205 2.205 0 0 0-.158.826v3.687h-1.351v-5.565"/></g></svg>
