<?xml version="1.0" encoding="UTF-8"?>
<svg width="151px" height="40px" viewBox="0 0 151 40" version="1.1" xmlns="http://www.w3.org/2000/svg" xmlns:xlink="http://www.w3.org/1999/xlink">
    <title>EE3044D6-B9EB-4D00-BBB9-B9C27285B6B1@1x</title>
    <g id="Com-Seguro-/-Com-Avalistas" stroke="none" stroke-width="1" fill="none" fill-rule="evenodd">
        <g id="04.00_APP_Simulação_Compartilhamento-de-Proposta-por-Email" transform="translate(-244.000000, -44.000000)" fill="#FFFFFF">
            <g id="A-/-Logo-/-Full-Blue" transform="translate(244.000000, 44.000000)">
                <path d="M64.1710301,31.5649383 C64.609492,31.5649383 64.9894495,31.6459608 65.3102597,31.8073679 C65.6310698,31.968137 65.89659,32.1850477 66.1081062,32.4593759 C66.3183364,32.7337042 66.4752055,33.0488626 66.5767847,33.4022995 C66.6783639,33.7576502 66.7291535,34.1327781 66.7291535,34.5264073 C66.7291535,35.0348714 66.6410753,35.4737966 66.4668478,35.8450967 C66.2926202,36.2163968 66.0650314,36.5213477 65.7847244,36.7631393 C65.5050602,37.0049309 65.191965,37.1842012 64.8473673,37.3015882 C64.5021267,37.4170612 64.1626723,37.4770307 63.8296469,37.4770307 C63.4484036,37.4770307 63.1417374,37.4387523 62.9102912,37.3615576 C62.6782021,37.2850009 62.4608998,37.2027024 62.2583844,37.1133863 L62.2583844,39.7252462 L61.1738018,39.7252462 L61.1738018,32.2596905 L61.1738018,32.2596905 C61.1738018,32.0778683 61.1699444,31.8871145 61.1622295,31.6867911 L62.2095235,31.6867911 L62.2461692,32.4842569 C62.3027449,32.412166 62.384394,32.3234878 62.4898306,32.2175843 C62.5952672,32.1129568 62.7270629,32.0134331 62.8858607,31.9158232 C63.0440157,31.8188514 63.2285297,31.7365529 63.4400458,31.6682899 C63.650919,31.5993888 63.8945804,31.5649383 64.1710301,31.5649383 Z M25.5863772,0.0114499354 C26.1701359,0.0114499354 26.6484581,0.4854636 26.6484581,1.06474275 L26.6484581,1.06474275 L26.6484581,36.2706244 C26.6484581,36.8505415 26.1701359,37.3264691 25.5863772,37.3264691 L25.5863772,37.3264691 L21.445419,37.3264691 C20.8610173,37.3264691 20.383981,36.8505415 20.383981,36.2706244 L20.383981,36.2706244 L20.383981,35.6033051 C18.2116013,37.1618722 15.7994176,37.9229735 13.0252777,37.9229735 C9.83324889,37.9229735 6.96974509,36.9041312 4.74271834,34.9774539 C1.6850569,32.3611281 0,28.7010792 0,24.671644 C0,20.9707648 1.57576287,17.4166193 4.32418647,14.9195944 C6.64764914,12.7504874 9.65773552,11.6034126 13.0252777,11.6034126 C16.0212202,11.6034126 18.3176808,12.2930611 20.3788377,13.8254713 L20.3788377,13.8254713 L20.383981,13.7655019 L20.383981,1.06474275 C20.383981,0.4854636 20.8610173,0.0114499354 21.445419,0.0114499354 L21.445419,0.0114499354 Z M91.2258048,31.5170904 C91.7131276,31.5170904 92.1310166,31.6095964 92.4801146,31.7952464 C92.8292126,31.9808965 93.1159488,32.22524 93.3390372,32.5327428 C93.5627685,32.8383317 93.7260666,33.1892166 93.8327891,33.5847596 C93.9382257,33.9783888 93.990944,34.3892431 93.990944,34.8166848 L89.519532,34.8166848 C89.5285327,35.067408 89.5831797,35.2964402 89.6854018,35.5056952 C89.7856951,35.7149503 89.9226341,35.8961345 90.0917184,36.0505239 C90.2640173,36.2036373 90.4588178,36.3242141 90.6774059,36.4116164 C90.8966369,36.5015705 91.1280831,36.5462286 91.3717445,36.5462286 C91.8513524,36.5462286 92.2441681,36.4652061 92.5534059,36.303161 C92.8620008,36.1423919 93.0857322,35.9854507 93.223957,35.8323372 L93.8450043,36.4849832 C93.7800708,36.5589881 93.6817061,36.6508561 93.552482,36.7631393 C93.4219721,36.8766984 93.2535307,36.9851538 93.0465149,37.0897813 C92.8394991,37.1956847 92.5958377,37.2850009 92.3155307,37.3615576 C92.0358665,37.4387523 91.7169851,37.4770307 91.3601722,37.4770307 C90.9210673,37.4770307 90.519251,37.4036638 90.1534374,37.258844 C89.7882668,37.1133863 89.4751715,36.909235 89.2154374,36.6425625 C88.9557033,36.3771659 88.7544737,36.0575416 88.6117486,35.6875174 C88.4709521,35.3162174 88.3995896,34.905363 88.3995896,34.4543163 C88.3995896,34.042824 88.4683805,33.6594024 88.6066053,33.3002239 C88.7448301,32.9416832 88.9389878,32.6309906 89.1903641,32.3681458 C89.4430262,32.107853 89.7419775,31.8998739 90.0872181,31.7467605 C90.4324587,31.5936471 90.8117733,31.5170904 91.2258048,31.5170904 Z M79.3397567,29.8487919 L79.3397567,31.6867911 L80.9958828,31.6867911 L80.9958828,32.5927122 L79.3397567,32.5927122 L79.3397567,35.3615134 C79.3397567,35.8125601 79.4098335,36.1226148 79.5519157,36.2923155 C79.693998,36.4601023 79.8958705,36.5462286 80.1543188,36.5462286 C80.3671207,36.5462286 80.5413482,36.513692 80.679573,36.4492568 C80.8177979,36.3841836 80.9560227,36.2872117 81.0923188,36.1589792 L81.5937855,36.8243847 C81.357839,37.0483131 81.1154634,37.21291 80.8679445,37.3124337 C80.6191399,37.4138714 80.3253318,37.4649092 79.9852344,37.4649092 C79.3834743,37.4649092 78.9430837,37.3041401 78.6627766,36.9813259 C78.3831124,36.6585118 78.2436018,36.1551514 78.2436018,35.4699688 L78.2436018,32.5927122 L77.5087601,32.5927122 L77.5087601,31.6867911 L78.2436018,31.6867911 L78.2436018,29.8487919 L79.3397567,29.8487919 Z M69.9558992,31.5170904 C70.6868834,31.5170904 71.2616415,31.6931708 71.6788876,32.0434178 C72.0980623,32.3930268 72.3063639,32.8919214 72.3063639,33.5356358 L72.3063639,36.8052455 L72.3063639,36.8052455 C72.3063639,37.003655 72.3102214,37.1708038 72.319222,37.3079679 L71.2957155,37.3079679 L71.271928,36.629803 C71.059769,36.9124249 70.7807477,37.1223179 70.436793,37.258844 C70.0915524,37.3960081 69.7360253,37.4649092 69.3708546,37.4649092 C69.1349081,37.4649092 68.9034619,37.4349245 68.6713728,37.3736791 C68.4399266,37.3124337 68.2290534,37.21291 68.0387532,37.071918 C67.8465243,36.9315641 67.6928697,36.7491039 67.5758608,36.5277274 C67.4575661,36.3057129 67.3984187,36.0339366 67.3984187,35.7117604 C67.3984187,35.1069623 67.6118635,34.6233791 68.0387532,34.2610106 C68.464357,33.8986422 69.0789753,33.71682 69.881965,33.71682 C70.0124749,33.71682 70.1506997,33.7200098 70.2959965,33.7289415 C70.443222,33.7365971 70.5814468,33.7455288 70.710671,33.7525464 C70.8398951,33.7614781 70.9543324,33.7691337 71.0520541,33.7761514 C71.1491329,33.786359 71.2179239,33.7940147 71.2590699,33.8023083 L71.2590699,33.5956052 C71.2590699,33.1783711 71.1311316,32.87661 70.8765407,32.6960638 C70.6200212,32.5142416 70.272209,32.4230115 69.8343899,32.4230115 C69.4036429,32.4230115 69.0629026,32.481705 68.8121692,32.5990919 C68.5595071,32.7158409 68.3492768,32.8345038 68.1782638,32.9550807 L67.6665106,32.2175843 C67.7642323,32.1378377 67.882527,32.0568152 68.0201089,31.9770686 C68.1576908,31.8960461 68.3203461,31.8214033 68.5067888,31.7531402 C68.6938745,31.6842392 68.9047477,31.6268216 69.1400513,31.5834395 C69.3747121,31.5381434 69.6473043,31.5170904 69.9558992,31.5170904 Z M34.9837358,0.00698412698 C35.5681374,0.00698412698 36.0464595,0.480997792 36.0464595,1.06027694 L36.0464595,1.06027694 L36.0509599,31.1024081 L55.3355714,31.0985803 C55.9109724,31.1011322 56.3982952,31.5783357 56.3982952,32.1576149 L56.3982952,32.1576149 L56.3982952,36.2074651 C56.3982952,36.7880202 55.920616,37.2811731 55.3355714,37.3213653 L55.3355714,37.3213653 L30.8427775,37.3213653 C30.2590188,37.2811731 29.7806966,36.8065214 29.7806966,36.2259663 L29.7806966,36.2259663 L29.7806966,1.06027694 C29.7806966,0.480997792 30.2590188,0.00698412698 30.8427775,0.00698412698 L30.8427775,0.00698412698 Z M97.8220215,31.6006648 C97.9435307,31.6006648 98.0541106,31.6095964 98.1569755,31.6255457 C98.2579118,31.642133 98.3530619,31.6670139 98.4424258,31.6982746 L98.1987644,32.713289 C98.0528247,32.6571474 97.8657391,32.6290766 97.6387932,32.6290766 C97.4028467,32.6290766 97.1855444,32.6737347 96.9868864,32.7624129 C96.7875855,32.8504531 96.6165725,32.9735819 96.4680612,33.1311611 C96.3240502,33.2881024 96.2070413,33.4712005 96.1215348,33.6804555 C96.0366712,33.8909865 95.9935965,34.111725 95.9935965,34.3445851 L95.9935965,37.3079679 L94.8974416,37.3079679 L94.8974416,32.223964 L94.8974416,32.223964 C94.8974416,32.0504355 94.8935841,31.8711652 94.8858693,31.6867911 L95.9318775,31.6867911 L95.969809,32.5927122 C96.0353854,32.4970163 96.1189632,32.3898369 96.2250427,32.2737259 C96.3317651,32.1563389 96.4597034,32.0491595 96.6088576,31.9521877 C96.7599406,31.8552158 96.9341681,31.7729174 97.1328261,31.7040163 C97.332127,31.6357533 97.5610016,31.6006648 97.8220215,31.6006648 Z M76.3650302,31.6006648 C76.4865394,31.6006648 76.5984051,31.6095964 76.7012701,31.6255457 C76.8022063,31.642133 76.8973564,31.6670139 76.9867204,31.6982746 L76.743059,32.713289 C76.5958335,32.6571474 76.4100336,32.6290766 76.1830877,32.6290766 C75.9471412,32.6290766 75.7298389,32.6737347 75.5311809,32.7624129 C75.3312371,32.8504531 75.1595812,32.9735819 75.0123557,33.1311611 C74.8670589,33.2881024 74.7513358,33.4712005 74.6658293,33.6804555 C74.5809657,33.8909865 74.537891,34.111725 74.537891,34.3445851 L74.537891,37.3079679 L73.4417361,37.3079679 L73.4417361,32.223964 L73.4417361,32.223964 C73.4417361,32.0504355 73.4378787,31.8711652 73.428878,31.6867911 L74.476172,31.6867911 L74.5128177,32.5927122 C74.5796799,32.4970163 74.6632577,32.3898369 74.7686943,32.2737259 C74.8747738,32.1563389 75.0027121,32.0491595 75.1531522,31.9521877 C75.3042351,31.8552158 75.4784626,31.7729174 75.6771206,31.7040163 C75.8764215,31.6357533 76.1052961,31.6006648 76.3650302,31.6006648 Z M85.3457856,31.5534548 C86.0838418,31.5534548 86.6328836,31.7678136 86.9890536,32.1939793 C87.3471523,32.621421 87.5252373,33.2019761 87.5252373,33.9343686 L87.5252373,37.3079679 L86.4290823,37.3079679 L86.4290823,34.019219 C86.4290823,33.4960815 86.3146451,33.110746 86.0876992,32.8644885 C85.8601104,32.6188691 85.5399432,32.4970163 85.1259117,32.4970163 C84.8083161,32.4970163 84.5460104,32.5601756 84.3332084,32.689684 C84.1223352,32.8179165 83.9558226,32.9850654 83.829813,33.1917685 C83.7031605,33.3965577 83.6112249,33.6306937 83.555935,33.8922625 C83.4987163,34.1538312 83.4710714,34.4230557 83.4710714,34.696108 L83.4710714,37.3079679 L82.3736306,37.3079679 L82.3736306,32.2596905 L82.3736306,32.2596905 C82.3736306,32.0778683 82.3697732,31.8871145 82.3620583,31.6867911 L83.4093524,31.6867911 L83.445998,32.5327428 C83.5199322,32.4357709 83.6080104,32.3285915 83.713447,32.2112046 C83.8201694,32.0957315 83.9493935,31.9885521 84.1024052,31.8922183 C84.2567026,31.7952464 84.4380021,31.7154998 84.6450179,31.6491507 C84.8520337,31.5847154 85.0841228,31.5534548 85.3457856,31.5534548 Z M69.9558992,34.5512882 C69.6473043,34.5512882 69.3972138,34.5876526 69.2062707,34.6597435 C69.0159705,34.7331104 68.8661733,34.8230645 68.7568793,34.9315199 C68.6475853,35.0412512 68.5723653,35.161828 68.5312193,35.2938883 C68.4907162,35.4285006 68.4707861,35.5541812 68.4707861,35.675396 C68.4707861,35.9816228 68.5762227,36.2125689 68.7883817,36.3707861 C68.9979691,36.5277274 69.2898485,36.607474 69.6633769,36.607474 C69.8742501,36.607474 70.0754797,36.5698336 70.2677087,36.4964667 C70.4567231,36.4243758 70.6264503,36.328042 70.7711041,36.2074651 C70.9176867,36.0862503 71.0359815,35.9458964 71.1253454,35.7838513 C71.2140664,35.6230822 71.2590699,35.4572093 71.2590699,35.2887845 L71.2590699,34.6476221 C71.2269246,34.6399664 71.1639198,34.6297588 71.0700555,34.6176373 C70.9768341,34.6048779 70.8688259,34.5946703 70.7473166,34.5876526 C70.6264503,34.578721 70.4959403,34.5710653 70.3577155,34.5627717 C70.2194907,34.555116 70.0851233,34.5512882 69.9558992,34.5512882 Z M63.9273686,32.5078618 C63.5371246,32.5078618 63.2040993,32.6150412 62.9282926,32.8281241 C62.6518429,33.041207 62.4570424,33.3538136 62.343248,33.7653059 C62.3027449,33.8948143 62.2783145,34.0332544 62.2705996,34.18254 C62.2622418,34.3318256 62.2583844,34.4868529 62.2583844,34.6476221 L62.2583844,36.0862503 C62.3882514,36.1915158 62.5753371,36.2923155 62.8189985,36.3880114 C63.062017,36.4849832 63.3667545,36.5341071 63.7325681,36.5341071 C64.0083748,36.5341071 64.2623227,36.4824313 64.4937689,36.3829076 C64.7252151,36.2821079 64.9238731,36.13984 65.0903858,35.9592938 C65.2568985,35.7787475 65.3848368,35.5669406 65.4742007,35.325149 C65.5642076,35.0833574 65.6085681,34.8166848 65.6085681,34.5264073 C65.6085681,34.253355 65.5777086,33.9943381 65.5166325,33.7525464 C65.4561994,33.5120308 65.3584776,33.297672 65.2247532,33.1120219 C65.0903858,32.9276478 64.9180869,32.7809141 64.7072137,32.6724588 C64.4950547,32.5627275 64.2359636,32.5078618 63.9273686,32.5078618 Z M91.2258048,32.4357709 C90.9660707,32.4357709 90.7326958,32.480429 90.5250371,32.5691072 C90.3180214,32.6571474 90.1412222,32.7745344 89.9952825,32.9193542 C89.8486999,33.063536 89.7355485,33.2319608 89.6551852,33.4214387 C89.5735361,33.6109165 89.5285327,33.8061362 89.519532,34.0070975 L92.8581434,34.0070975 C92.8253552,33.5720002 92.6710577,33.2019761 92.3946081,32.8951112 C92.1188014,32.5888844 91.7292003,32.4357709 91.2258048,32.4357709 Z M13.4386663,17.8281116 C9.66287877,17.8281116 6.5917163,20.9395041 6.5917163,24.7622361 C6.5917163,28.7559448 9.58701585,31.6529785 13.715116,31.6529785 C17.3224621,31.6529785 20.1486774,28.6679046 20.1486774,24.8547422 C20.1486774,20.850188 17.2639577,17.8281116 13.4386663,17.8281116 Z M89.3273031,22.178447 C89.8056252,22.178447 90.2273716,22.2632973 90.594471,22.4323601 C90.9596417,22.6020608 91.2708082,22.831093 91.532471,23.1213705 L90.8130591,23.810381 C90.6420461,23.6011259 90.4350303,23.4352531 90.1926547,23.3146762 C89.9489933,23.1940994 89.6603284,23.132854 89.3273031,23.132854 C89.0347808,23.132854 88.7724751,23.1889956 88.5410289,23.297451 C88.3089398,23.4059063 88.1141393,23.553916 87.9559843,23.7433938 C87.7978294,23.9341477 87.6763202,24.1510584 87.5908137,24.3960398 C87.5053072,24.6429352 87.4641612,24.8981243 87.4641612,25.1647969 C87.4641612,25.4218998 87.5053072,25.674537 87.5908137,25.9201565 C87.6763202,26.1657759 87.7978294,26.3839626 87.9559843,26.5715265 C88.1141393,26.7610044 88.3089398,26.9134798 88.5410289,27.0251251 C88.7724751,27.1386842 89.0347808,27.1948258 89.3273031,27.1948258 C89.6603284,27.1948258 89.9573511,27.1323045 90.2228713,27.0078998 C90.4864628,26.8834951 90.703765,26.7150704 90.8741352,26.5058153 L91.5434004,27.2075852 C91.2913812,27.4902071 90.9808576,27.7166874 90.6118295,27.8902159 C90.2428014,28.0631065 89.8133401,28.1505088 89.3273031,28.1505088 C88.8714826,28.1505088 88.4593798,28.075866 88.0903517,27.9259424 C87.7213236,27.7779328 87.4075854,27.5725056 87.1523517,27.3096608 C86.8964751,27.0480921 86.6991029,26.7335716 86.5608781,26.3673753 C86.4226533,26.001179 86.3538623,25.5998942 86.3538623,25.1647969 C86.3538623,24.7526665 86.4265107,24.3673311 86.5737362,24.0036867 C86.719033,23.6413182 86.92412,23.3248838 87.1889974,23.0543834 C87.4525889,22.7851589 87.7650412,22.5708001 88.1269974,22.4138589 C88.4883106,22.2569176 88.8875553,22.178447 89.3273031,22.178447 Z M76.8472097,22.1905685 C77.578194,22.1905685 78.152952,22.3666489 78.5714839,22.7162579 C78.9893729,23.0665049 79.1989603,23.5641235 79.1989603,24.2091139 L79.1989603,27.4799995 L79.1989603,27.4799995 C79.1989603,27.6771331 79.2028177,27.8442819 79.2105326,27.9795321 L78.1870261,27.9795321 L78.1632385,27.3032811 C77.9523653,27.585903 77.6733441,27.795158 77.3281035,27.9323221 C76.9828629,28.0694863 76.6273359,28.1383873 76.2621652,28.1383873 C76.0262186,28.1383873 75.7934866,28.1084026 75.5613975,28.0471572 C75.3305942,27.9859118 75.1190781,27.8863881 74.9287779,27.7453962 C74.7378348,27.6050422 74.5828944,27.422582 74.4652426,27.2012055 C74.3482337,26.979191 74.2890863,26.7074147 74.2890863,26.3846005 C74.2890863,25.7804405 74.5012454,25.2968572 74.9287779,24.9344887 C75.3543818,24.5721203 75.9696429,24.3909361 76.7745614,24.3909361 C76.9037855,24.3909361 77.0420103,24.3947639 77.1873071,24.4036955 C77.3345326,24.4113512 77.4727574,24.4183689 77.6032673,24.4273005 C77.7324915,24.4349562 77.8456429,24.4432498 77.9433647,24.4509055 C78.0410864,24.4598371 78.1092344,24.4674928 78.1503804,24.4757864 L78.1503804,24.2690833 C78.1503804,23.8505732 78.0224421,23.5500881 77.7678513,23.3695419 C77.5113318,23.1877197 77.1635195,23.0964896 76.7250576,23.0964896 C76.2949534,23.0964896 75.9542132,23.156459 75.702194,23.27257 C75.4508177,23.389319 75.2399445,23.5079819 75.0676456,23.6285588 L74.5565353,22.8910624 C74.6536141,22.8113158 74.7712659,22.7302933 74.9107766,22.6505467 C75.0477156,22.5695242 75.2110137,22.4936055 75.3968136,22.4259804 C75.5838992,22.3577173 75.7960583,22.3015757 76.030719,22.2569176 C76.2660226,22.2116216 76.5379719,22.1905685 76.8472097,22.1905685 Z M97.1804012,22.1905685 C97.9113854,22.1905685 98.4861435,22.3666489 98.9040324,22.7162579 C99.3225643,23.0665049 99.5321517,23.5641235 99.5321517,24.2091139 L99.5321517,27.4799995 C99.5321517,27.6771331 99.5347233,27.8442819 99.543724,27.9795321 L98.5202175,27.9795321 L98.49643,27.3032811 C98.2855568,27.585903 98.0065355,27.795158 97.6612949,27.9323221 C97.3160543,28.0694863 96.9618131,28.1383873 96.5966424,28.1383873 C96.3594101,28.1383873 96.126678,28.1084026 95.8945889,28.0471572 C95.6631427,27.9859118 95.4522695,27.8863881 95.2613264,27.7453962 C95.0710262,27.6050422 94.9160859,27.422582 94.7997198,27.2012055 C94.6814251,26.979191 94.6209919,26.7074147 94.6209919,26.3846005 C94.6209919,25.7804405 94.8344368,25.2968572 95.2613264,24.9344887 C95.688859,24.5721203 96.3041201,24.3909361 97.1077528,24.3909361 C97.2369769,24.3909361 97.3752017,24.3947639 97.5204985,24.4036955 C97.667724,24.4113512 97.804663,24.4183689 97.9351729,24.4273005 C98.0656829,24.4349562 98.1801202,24.4432498 98.2765561,24.4509055 C98.372992,24.4598371 98.4437117,24.4674928 98.4848576,24.4757864 L98.4848576,24.2690833 C98.4848576,23.8505732 98.3556335,23.5500881 98.1003998,23.3695419 C97.8445232,23.1889956 97.496711,23.0964896 97.058249,23.0964896 C96.6287877,23.0964896 96.2861188,23.156459 96.0353854,23.27257 C95.7840091,23.389319 95.5731359,23.5079819 95.4021229,23.6285588 L94.8897267,22.8910624 C94.9880913,22.8113158 95.1057432,22.7302933 95.2426822,22.6505467 C95.3821928,22.5695242 95.5442051,22.4936055 95.730005,22.4259804 C95.9170907,22.3577173 96.1279639,22.3015757 96.3639104,22.2569176 C96.599214,22.2116216 96.8711633,22.1905685 97.1804012,22.1905685 Z M136.359742,22.153566 C136.790489,22.153566 137.188448,22.2333126 137.554262,22.3902539 C137.919432,22.5471952 138.235742,22.7628299 138.504477,23.0352442 C138.771926,23.3108484 138.980227,23.6272828 139.132596,23.9851855 C139.28175,24.3437261 139.35697,24.7290616 139.35697,25.1399159 C139.35697,25.5501323 139.28175,25.9361058 139.132596,26.2952844 C138.980227,26.652549 138.771926,26.9689835 138.504477,27.2433117 C138.235742,27.5176399 137.919432,27.7332747 137.554262,27.8902159 C137.188448,28.0471572 136.790489,28.1256278 136.359742,28.1256278 C135.921923,28.1256278 135.520107,28.0471572 135.153007,27.8902159 C134.789123,27.7332747 134.474099,27.5176399 134.210507,27.2433117 C133.944987,26.9689835 133.739257,26.652549 133.588817,26.2952844 C133.437734,25.9361058 133.362514,25.5501323 133.362514,25.1399159 C133.362514,24.7290616 133.437734,24.3437261 133.588817,23.9851855 C133.739257,23.6272828 133.944987,23.3108484 134.210507,23.0352442 C134.474099,22.7628299 134.789123,22.5471952 135.153007,22.3902539 C135.520107,22.2333126 135.921923,22.153566 136.359742,22.153566 Z M148.69711,22.153566 C149.176718,22.153566 149.588178,22.2167253 149.934062,22.341768 C150.279302,22.4661726 150.580182,22.6416151 150.841845,22.8674574 L150.243942,23.6164373 C150.072929,23.4639618 149.859485,23.3344534 149.604894,23.2298259 C149.348374,23.1239224 149.050709,23.0728846 148.709326,23.0728846 C148.358942,23.0728846 148.079278,23.1290262 147.868404,23.2425853 C147.657531,23.3542305 147.551452,23.5398806 147.551452,23.7982595 C147.551452,24.0400511 147.690962,24.2193214 147.972555,24.3354324 C148.252219,24.4534574 148.619319,24.5644646 149.075139,24.6678162 C149.342588,24.7328894 149.592036,24.8075322 149.823482,24.8923825 C150.055571,24.9765949 150.258729,25.0850503 150.4336,25.2183866 C150.607827,25.3504469 150.744766,25.5137679 150.846345,25.7083495 C150.948568,25.9016553 151,26.1345153 151,26.4101194 C151,26.6914654 150.934424,26.9396367 150.803914,27.1527196 C150.67469,27.3658024 150.499819,27.5450727 150.281874,27.6905305 C150.062,27.8353503 149.809338,27.9450816 149.525816,28.0171725 C149.240366,28.0892634 148.943986,28.1256278 148.635391,28.1256278 C147.56431,28.1256278 146.760677,27.8391781 146.223208,27.2669167 L146.893759,26.5421798 C147.096917,26.7437791 147.340578,26.9045482 147.624743,27.0251251 C147.90955,27.1463399 148.237432,27.2075852 148.611604,27.2075852 C148.976774,27.2075852 149.280869,27.1488917 149.525816,27.0315048 C149.769478,26.9153938 149.890987,26.7310197 149.890987,26.4809344 C149.890987,26.3527019 149.864628,26.2429706 149.81191,26.1479127 C149.757905,26.0560446 149.669827,25.9737462 149.543175,25.9016553 C149.417808,25.8289264 149.250652,25.7632152 149.044923,25.7019698 C148.836621,25.6420004 148.578816,25.5750133 148.270221,25.5016464 C148.051633,25.4537985 147.83433,25.3893632 147.6196,25.3096166 C147.403583,25.2285941 147.211354,25.1226907 147.040984,24.9893544 C146.869971,24.8560181 146.730461,24.6939731 146.62631,24.5044952 C146.519587,24.3150173 146.468155,24.088537 146.468155,23.8231404 C146.468155,23.5475362 146.529874,23.3082965 146.656526,23.1028693 C146.781893,22.8974421 146.95162,22.7239136 147.162493,22.5829216 C147.372081,22.4425676 147.610599,22.3353882 147.874191,22.2632973 C148.139711,22.1892925 148.41166,22.153566 148.69711,22.153566 Z M107.963865,22.153566 C108.443473,22.153566 108.855576,22.2167253 109.200817,22.341768 C109.546057,22.4661726 109.84758,22.6416151 110.1086,22.8674574 L109.511983,23.6164373 C109.341613,23.4639618 109.126882,23.3344534 108.871649,23.2298259 C108.615772,23.1239224 108.318107,23.0728846 107.976723,23.0728846 C107.62634,23.0728846 107.347318,23.1290262 107.136445,23.2425853 C106.924286,23.3542305 106.820135,23.5398806 106.820135,23.7982595 C106.820135,24.0400511 106.959646,24.2193214 107.23931,24.3354324 C107.519617,24.4534574 107.887359,24.5644646 108.341894,24.6678162 C108.610629,24.7328894 108.859433,24.8075322 109.091523,24.8923825 C109.322969,24.9765949 109.526127,25.0850503 109.699712,25.2183866 C109.875225,25.3504469 110.01345,25.5137679 110.115029,25.7083495 C110.215322,25.9016553 110.266755,26.1345153 110.266755,26.4101194 C110.266755,26.6914654 110.201821,26.9396367 110.071311,27.1527196 C109.941444,27.3658024 109.767217,27.5450727 109.548629,27.6905305 C109.328755,27.8353503 109.076736,27.9450816 108.791285,28.0171725 C108.507764,28.0892634 108.211384,28.1256278 107.904075,28.1256278 C106.831708,28.1256278 106.026789,27.8391781 105.491891,27.2669167 L106.162442,26.5421798 C106.364315,26.7437791 106.607976,26.9045482 106.891498,27.0251251 C107.176948,27.1463399 107.504187,27.2075852 107.878359,27.2075852 C108.245458,27.2075852 108.54891,27.1488917 108.791285,27.0315048 C109.036233,26.9153938 109.158385,26.7310197 109.158385,26.4809344 C109.158385,26.3527019 109.132026,26.2429706 109.079307,26.1479127 C109.026589,26.0560446 108.937225,25.9737462 108.811858,25.9016553 C108.684563,25.8289264 108.519336,25.7632152 108.311677,25.7019698 C108.104662,25.6420004 107.846213,25.5750133 107.538261,25.5016464 C107.318388,25.4537985 107.101085,25.3893632 106.886998,25.3096166 C106.670981,25.2285941 106.478752,25.1226907 106.306453,24.9893544 C106.136726,24.8560181 105.999144,24.6939731 105.893708,24.5044952 C105.786985,24.3150173 105.73491,24.088537 105.73491,23.8231404 C105.73491,23.5475362 105.797915,23.3082965 105.924567,23.1028693 C106.049291,22.8974421 106.218375,22.7239136 106.429891,22.5829216 C106.640765,22.4425676 106.877997,22.3353882 107.141588,22.2632973 C107.406466,22.1892925 107.680344,22.153566 107.963865,22.153566 Z M113.969894,22.153566 C114.400641,22.153566 114.797314,22.2333126 115.163128,22.3902539 C115.529584,22.5471952 115.845894,22.7628299 116.114629,23.0352442 C116.382078,23.3108484 116.590379,23.6272828 116.741462,23.9851855 C116.891902,24.3437261 116.965837,24.7290616 116.965837,25.1399159 C116.965837,25.5501323 116.891902,25.9361058 116.741462,26.2952844 C116.590379,26.652549 116.382078,26.9689835 116.114629,27.2433117 C115.845894,27.5176399 115.529584,27.7332747 115.163128,27.8902159 C114.797314,28.0471572 114.400641,28.1256278 113.969894,28.1256278 C113.531432,28.1256278 113.12833,28.0471572 112.763159,27.8902159 C112.397989,27.7332747 112.083608,27.5176399 111.81873,27.2433117 C111.555139,26.9689835 111.348123,26.652549 111.197683,26.2952844 C111.047886,25.9361058 110.972666,25.5501323 110.972666,25.1399159 C110.972666,24.7290616 111.047886,24.3437261 111.197683,23.9851855 C111.348123,23.6272828 111.555139,23.3108484 111.81873,23.0352442 C112.083608,22.7628299 112.397989,22.5471952 112.763159,22.3902539 C113.12833,22.2333126 113.531432,22.153566 113.969894,22.153566 Z M128.259768,20.498665 L128.259768,22.3353882 L129.915894,22.3353882 L129.915894,23.2425853 L128.259768,23.2425853 L128.259768,26.0113865 C128.259768,26.4611572 128.329845,26.7712119 128.473213,26.9421886 C128.614652,27.1099754 128.815882,27.1948258 129.07433,27.1948258 C129.286489,27.1948258 129.46136,27.1635651 129.599584,27.0991299 C129.737166,27.0340567 129.875391,26.9370848 130.013616,26.8088523 L130.512511,27.4736198 C130.277207,27.6981862 130.036118,27.8615072 129.787956,27.9623068 C129.540437,28.0631065 129.246629,28.1141443 128.905246,28.1141443 C128.303486,28.1141443 127.863738,27.9520993 127.584074,27.6299231 C127.303767,27.307109 127.163613,26.8037486 127.163613,26.117928 L127.163613,23.2425853 L126.140107,23.2425853 L126.140107,22.3353882 L127.163613,22.3353882 L127.163613,20.498665 L128.259768,20.498665 Z M121.255306,22.3353882 L121.255306,25.6362586 C121.255306,26.1670519 121.3646,26.5517494 121.584474,26.7897132 C121.804348,27.0276769 122.120658,27.1463399 122.534689,27.1463399 C122.851642,27.1463399 123.113948,27.0825426 123.320963,26.9530341 C123.526693,26.8248016 123.696421,26.6563769 123.825645,26.4509497 C123.956155,26.2467984 124.046804,26.0120245 124.100809,25.7504557 C124.152241,25.487611 124.179886,25.2209385 124.179886,24.9459722 L124.179886,22.3353882 L125.276041,22.3353882 L125.276041,27.3817518 L125.276041,27.3817518 C125.276041,27.563574 125.279898,27.7556037 125.288899,27.9559271 L124.241605,27.9559271 L124.203674,27.1227349 C124.131025,27.2184308 124.041661,27.3230583 123.936225,27.4366174 C123.830788,27.5501765 123.700278,27.6522522 123.545981,27.7453962 C123.39104,27.8379022 123.212955,27.9163728 123.009797,27.9795321 C122.805996,28.0458813 122.575192,28.0784179 122.315458,28.0784179 C121.576759,28.0784179 121.031575,27.865335 120.682477,27.4429971 C120.334022,27.0193833 120.159151,26.4420181 120.159151,25.7083495 L120.159151,22.3353882 L121.255306,22.3353882 Z M44.3804514,0.00698412698 C44.965496,0.00698412698 45.4431752,0.480359819 45.4431752,1.06027694 L45.4431752,1.06027694 L45.4431752,21.7797141 L55.3407147,21.7797141 C55.9257592,21.7797141 56.4040814,22.2530898 56.4040814,22.8336449 L56.4040814,22.8336449 L56.4040814,26.9281532 C56.4040814,27.5061564 55.9347599,27.9935675 55.3407147,27.9935675 L55.3407147,27.9935675 L40.2510655,27.9935675 C39.6660209,27.9935675 39.1889846,27.5189159 39.1889846,26.9396367 L39.1889846,26.9396367 L39.1780552,1.06027694 C39.1780552,0.480359819 39.6550915,0.00698412698 40.2394932,0.00698412698 L40.2394932,0.00698412698 Z M66.7413687,22.3589932 L66.7413687,27.9801701 L65.6452138,27.9801701 L65.6452138,22.3589932 L66.7413687,22.3589932 Z M93.6052003,22.3602692 L93.6052003,27.9801701 L92.5090454,27.9801701 L92.5090454,22.3602692 L93.6052003,22.3602692 Z M63.5808422,19.7120448 C63.8810794,19.7120448 64.1748875,19.7579788 64.4635523,19.8504848 C64.5979197,19.893867 64.725858,19.9544744 64.8505818,20.0265653 L64.8505818,20.0265653 L64.2906106,20.7691654 C64.116383,20.6951606 63.9370122,20.6543304 63.7512124,20.6543304 C63.4342597,20.6543304 63.1803117,20.75513 62.9900115,20.9573674 C62.7984255,21.1576908 62.7039183,21.5053859 62.7039183,21.9966248 L62.7039183,21.9966248 L62.7039183,22.3589932 L64.3233988,22.3589932 L64.3233988,23.2661903 L62.7039183,23.2661903 L62.7039183,27.9795321 L61.6071205,27.9795321 L61.6071205,23.2661903 L60.5842569,23.2661903 L60.5842569,22.3589932 L61.6071205,22.3589932 L61.6071205,21.9002909 C61.6071205,21.5213352 61.6617675,21.1927793 61.7717045,20.9146232 C61.8809985,20.6358292 62.0269382,20.4087109 62.2101664,20.2313545 C62.3927518,20.0546361 62.6016963,19.9238517 62.8376428,19.8383634 C63.0729464,19.753513 63.3204653,19.7120448 63.5808422,19.7120448 Z M71.1536333,22.2269329 C71.8936182,22.2269329 72.4407313,22.4400158 72.79883,22.8674574 C73.1556429,23.2948991 73.3350137,23.8754542 73.3350137,24.6078468 L73.3350137,27.9795321 L72.237573,27.9795321 L72.237573,24.6926971 C72.237573,24.1695596 72.1244215,23.7842241 71.8974756,23.5392426 C71.6686011,23.2923472 71.3484338,23.1698564 70.9356881,23.1698564 C70.6174496,23.1698564 70.3538581,23.2336537 70.1429849,23.3631622 C69.9308259,23.4913947 69.7623845,23.6585435 69.6383036,23.8652466 C69.5103653,24.0700358 69.4184297,24.3028958 69.361211,24.5657406 C69.3039924,24.8273093 69.2757045,25.0965338 69.2757045,25.3695861 L69.2757045,27.9795321 L68.1782638,27.9795321 L68.1782638,22.9331686 L68.1782638,22.9331686 C68.1782638,22.7526223 68.1737635,22.5618685 68.1654057,22.3602692 L69.2139855,22.3602692 L69.2499883,23.2062209 C69.3245654,23.109249 69.4132864,23.0020696 69.5200089,22.8859586 C69.6267313,22.7685717 69.7578841,22.6620302 69.9108958,22.5656964 C70.0651932,22.4674486 70.2458498,22.387702 70.4535085,22.3239047 C70.6605243,22.2594695 70.8938992,22.2269329 71.1536333,22.2269329 Z M102.004769,19.9181099 L102.004769,27.9795321 L100.908614,27.9795321 L100.908614,19.9181099 L102.004769,19.9181099 Z M83.3405614,22.2269329 C84.0786176,22.2269329 84.6263736,22.4400158 84.9838294,22.8674574 C85.3419281,23.2948991 85.5200131,23.8754542 85.5200131,24.6078468 L85.5200131,27.9795321 L84.4238582,27.9795321 L84.4238582,24.6926971 C84.4238582,24.1695596 84.3094209,23.7842241 84.0824751,23.5392426 C83.8548863,23.2923472 83.5347191,23.1698564 83.1206875,23.1698564 C82.8043777,23.1698564 82.5401433,23.2336537 82.3292701,23.3631622 C82.1183969,23.4913947 81.9499555,23.6585435 81.823303,23.8652466 C81.6979363,24.0700358 81.6072866,24.3028958 81.5507108,24.5657406 C81.4928493,24.8273093 81.4645614,25.0965338 81.4645614,25.3695861 L81.4645614,27.9795321 L80.3677636,27.9795321 L80.3677636,22.9331686 L80.3677636,22.9331686 C80.3677636,22.7526223 80.3645491,22.5618685 80.3568342,22.3602692 L81.4041282,22.3602692 L81.440131,23.2062209 C81.5134223,23.109249 81.6034291,23.0020696 81.7075799,22.8859586 C81.8136594,22.7685717 81.9441694,22.6620302 82.0984668,22.5656964 C82.2527643,22.4687245 82.4321351,22.387702 82.6397938,22.3239047 C82.8468095,22.2594695 83.0788986,22.2269329 83.3405614,22.2269329 Z M132.376939,22.3353882 L132.376939,27.9565651 L131.280784,27.9565651 L131.280784,22.3353882 L132.376939,22.3353882 Z M119.001277,19.893229 L119.001277,27.9559271 L117.905122,27.9559271 L117.905122,19.893229 L119.001277,19.893229 Z M143.224694,22.202052 C143.964036,22.202052 144.511792,22.4164108 144.86989,22.8438524 C145.22606,23.2712941 145.406074,23.8505732 145.406074,24.5842418 L145.406074,27.9559271 L144.308633,27.9559271 L144.308633,24.6678162 C144.308633,24.1446786 144.195482,23.7606191 143.967893,23.5137237 C143.739661,23.2687422 143.419494,23.1462515 143.00482,23.1462515 C142.68851,23.1462515 142.424918,23.2100487 142.214045,23.3382812 C142.001886,23.4677897 141.833445,23.6336625 141.708078,23.8403657 C141.582068,24.0457929 141.490776,24.2792909 141.4342,24.5421356 C141.377624,24.8037044 141.348694,25.0716529 141.348694,25.3459811 L141.348694,27.9559271 L140.252539,27.9559271 L140.252539,22.9095636 L140.252539,22.9095636 C140.252539,22.7277414 140.248681,22.5369876 140.239681,22.3353882 L141.286975,22.3353882 L141.32362,23.18134 C141.397554,23.0843681 141.486918,22.9771887 141.592355,22.8610777 C141.697792,22.7436907 141.827016,22.6365113 141.982599,22.5408154 C142.136254,22.4438436 142.31691,22.364097 142.523926,22.2990238 C142.730942,22.2345886 142.964959,22.202052 143.224694,22.202052 Z M76.8472097,25.2247663 C76.5379719,25.2247663 76.2885243,25.2611307 76.098867,25.3332216 C75.9066381,25.4053125 75.7574839,25.4965426 75.646904,25.6062739 C75.53761,25.7147293 75.46239,25.8353061 75.4218869,25.9686424 C75.3807409,26.1007027 75.3601679,26.2276593 75.3601679,26.3488741 C75.3601679,26.6551009 75.4668903,26.887323 75.6771206,27.0442642 C75.8892796,27.2012055 76.1818019,27.2796761 76.5546875,27.2796761 C76.7655607,27.2796761 76.9661474,27.2433117 77.1570905,27.1712208 C77.3480336,27.0991299 77.5177608,27.0015201 77.6630576,26.8822192 C77.8102831,26.7597284 77.9285778,26.6193745 78.016013,26.4586054 C78.105377,26.2965603 78.1503804,26.1306874 78.1503804,25.9622627 L78.1503804,25.3217381 C78.1175922,25.3134445 78.0552303,25.3032369 77.9620089,25.2911154 C77.8681446,25.2796319 77.7614222,25.2681484 77.6392701,25.2611307 C77.5177608,25.2534751 77.3872509,25.2445434 77.2490261,25.2362498 C77.1108012,25.2285941 76.9764339,25.2247663 76.8472097,25.2247663 Z M97.1804012,25.2247663 C96.8711633,25.2247663 96.6217158,25.2611307 96.4307726,25.3332216 C96.2398295,25.4053125 96.0893895,25.4965426 95.9800955,25.6062739 C95.8708014,25.7147293 95.7955814,25.8353061 95.7550783,25.9686424 C95.7139323,26.1007027 95.6946451,26.2276593 95.6946451,26.3488741 C95.6946451,26.6551009 95.8000817,26.887323 96.0109549,27.0442642 C96.2224711,27.2012055 96.5137075,27.2796761 96.8878789,27.2796761 C97.0987521,27.2796761 97.3006246,27.2433117 97.4902819,27.1712208 C97.681225,27.0991299 97.8509522,27.0015201 97.996249,26.8822192 C98.1434745,26.7597284 98.2604834,26.6193745 98.3492045,26.4586054 C98.4398542,26.2965603 98.4848576,26.1306874 98.4848576,25.9622627 L98.4848576,25.3217381 C98.4507836,25.3134445 98.3884217,25.3032369 98.2952003,25.2911154 C98.2013361,25.2796319 98.0933278,25.2681484 97.9711757,25.2611307 C97.8509522,25.2534751 97.7204423,25.2445434 97.5822175,25.2362498 C97.4439927,25.2285941 97.3109111,25.2247663 97.1804012,25.2247663 Z M136.359742,23.0964896 C136.06722,23.0964896 135.803628,23.1551831 135.568968,23.27257 C135.333021,23.389319 135.134363,23.5424325 134.971065,23.7306344 C134.809053,23.9213882 134.684972,24.1382989 134.600751,24.3851943 C134.515245,24.6301758 134.472813,24.882175 134.472813,25.1399159 C134.472813,25.3982948 134.515245,25.6483801 134.600751,25.8888958 C134.684972,26.1306874 134.810338,26.3488741 134.977494,26.5421798 C135.14465,26.7348475 135.342665,26.8905128 135.575397,27.0078998 C135.804914,27.1252868 136.06722,27.1820663 136.359742,27.1820663 C136.652264,27.1820663 136.915856,27.1252868 137.152445,27.0078998 C137.388392,26.8905128 137.586407,26.7373994 137.748419,26.5479215 C137.911717,26.3584437 138.036441,26.140895 138.120662,25.8952755 C138.205526,25.6496561 138.2486,25.3982948 138.2486,25.1399159 C138.2486,24.8898307 138.205526,24.6416593 138.120662,24.3960398 C138.036441,24.1510584 137.909146,23.9315958 137.743919,23.7370141 C137.576763,23.5437084 137.37682,23.389319 137.146016,23.27257 C136.915213,23.1551831 136.652264,23.0964896 136.359742,23.0964896 Z M113.969894,23.0964896 C113.677372,23.0964896 113.41378,23.1551831 113.177834,23.27257 C112.941244,23.389319 112.743229,23.5424325 112.581217,23.7306344 C112.417919,23.9213882 112.295124,24.1382989 112.209617,24.3851943 C112.124111,24.6301758 112.081679,24.882175 112.081679,25.1399159 C112.081679,25.3982948 112.124111,25.6483801 112.209617,25.8888958 C112.295124,26.1306874 112.42049,26.3488741 112.587646,26.5421798 C112.753516,26.7348475 112.952817,26.8905128 113.184906,27.0078998 C113.415066,27.1252868 113.677372,27.1820663 113.969894,27.1820663 C114.261131,27.1820663 114.526008,27.1252868 114.761312,27.0078998 C114.997258,26.8905128 115.195273,26.7373994 115.358571,26.5479215 C115.520584,26.3584437 115.645307,26.140895 115.730171,25.8952755 C115.814392,25.6496561 115.857466,25.3982948 115.857466,25.1399159 C115.857466,24.8898307 115.814392,24.6416593 115.730171,24.3960398 C115.645307,24.1510584 115.518012,23.9315958 115.352142,23.7370141 C115.18563,23.5437084 114.986972,23.389319 114.756168,23.27257 C114.523436,23.1551831 114.261131,23.0964896 113.969894,23.0964896 Z M93.6656335,20.1356586 L93.6656335,21.3567382 L92.4351112,21.3567382 L92.4351112,20.1356586 L93.6656335,20.1356586 Z M66.8024447,20.1350206 L66.8024447,21.3561003 L65.5725654,21.3561003 L65.5725654,20.1350206 L66.8024447,20.1350206 Z M132.437372,20.1107777 L132.437372,21.3324953 L131.20685,21.3324953 L131.20685,20.1107777 L132.437372,20.1107777 Z" id="Combined-Shape"></path>
            </g>
        </g>
    </g>
</svg>