<?xml version="1.0" encoding="UTF-8"?>
<svg width="151px" height="40px" viewBox="0 0 151 40" version="1.1" xmlns="http://www.w3.org/2000/svg" xmlns:xlink="http://www.w3.org/1999/xlink">
    <!-- Generator: sketchtool 51.2 (57519) - http://www.bohemiancoding.com/sketch -->
    <title>DFD753E5-14D2-45AC-982E-EBC9508F1BA4</title>
    <desc>Created with sketchtool.</desc>
    <defs></defs>
    <g id="Page-1" stroke="none" stroke-width="1" fill="none" fill-rule="evenodd">
        <g id="00.01_Home" transform="translate(-33.000000, -20.000000)">
            <g id="O-/-Header">
                <g id="A-/-Logo-/-DLL">
                    <g transform="translate(28.000000, 14.000000)">
                        <g id="A-/--Logo">
                            <rect id="Rectangle-2" x="0" y="0" width="160" height="52"></rect>
                            <path d="M19.0589958,37.5015873 C14.9506441,37.5015873 11.9696737,34.6184127 11.9696737,30.6438095 C11.9696737,26.8393651 15.0261441,23.7428571 18.7838686,23.7428571 C22.5908602,23.7428571 25.4617797,26.7504762 25.4617797,30.735873 C25.4617797,34.5307937 22.6490847,37.5015873 19.0589958,37.5015873 Z M30.8734661,6.01142857 L26.7523178,6.01142857 C26.1707119,6.01142857 25.6959576,6.4831746 25.6959576,7.05968254 L25.6959576,19.6996825 L25.690839,19.7593651 C23.6395424,18.2342857 21.3540678,17.5479365 18.3724576,17.5479365 C15.0210254,17.5479365 12.025339,18.6895238 9.71299153,20.848254 C6.9777161,23.3333333 5.40949153,26.8704762 5.40949153,30.5536508 C5.40949153,34.5638095 7.08648729,38.2063492 10.1295212,40.8101587 C12.3458941,42.727619 15.1956992,43.7415873 18.3724576,43.7415873 C21.1333263,43.7415873 23.5339703,42.984127 25.690839,41.4266667 L25.6959576,41.4330159 L25.6959576,42.0971429 C25.6959576,42.6742857 26.1707119,43.1479365 26.7523178,43.1479365 L30.8734661,43.1479365 C31.4544322,43.1479365 31.9304661,42.6742857 31.9304661,42.0971429 L31.9304661,7.05968254 C31.9304661,6.4831746 31.4544322,6.01142857 30.8734661,6.01142857 Z" id="Fill-1" fill="#0099FF"></path>
                            <path d="M60.4854619,27.6755556 L50.6352712,27.6755556 L50.6352712,7.0552381 C50.6352712,6.47809524 50.1598771,6.00698413 49.5776314,6.00698413 L45.4564831,6.00698413 C44.8748771,6.00698413 44.4001229,6.47809524 44.4001229,7.0552381 L44.411,32.8107937 C44.411,33.3873016 44.8857542,33.8596825 45.468,33.8596825 L60.4854619,33.8596825 C61.0766653,33.8596825 61.5437415,33.3746032 61.5437415,32.7993651 L61.5437415,28.7244444 C61.5437415,28.1466667 61.0677076,27.6755556 60.4854619,27.6755556" id="Fill-2" fill="#0099FF"></path>
                            <path d="M60.4803432,36.9498413 L41.2879873,36.9536508 L41.2835085,7.0552381 C41.2835085,6.47873016 40.8074746,6.00698413 40.2258686,6.00698413 L36.1047203,6.00698413 C35.5237542,6.00698413 35.0477203,6.47873016 35.0477203,7.0552381 L35.0477203,42.0526984 C35.0477203,42.6304762 35.5237542,43.1028571 36.1047203,43.1428571 L60.4803432,43.1428571 C61.062589,43.1028571 61.5379831,42.6120635 61.5379831,42.0342857 L61.5379831,38.0038095 C61.5379831,37.4273016 61.0529915,36.952381 60.4803432,36.9498413" id="Fill-3" fill="#0099FF"></path>
                            <path d="M111.064064,32.4152381 C111.26497,32.615873 111.507466,32.775873 111.789631,32.895873 C112.073716,33.0165079 112.39939,33.0774603 112.771771,33.0774603 C113.137114,33.0774603 113.439114,33.0190476 113.680331,32.9022222 C113.924106,32.7866667 114.045674,32.6031746 114.045674,32.3542857 C114.045674,32.2266667 114.019441,32.1174603 113.966975,32.0228571 C113.914508,31.9314286 113.825572,31.8495238 113.700805,31.7777778 C113.574119,31.7053968 113.409682,31.64 113.203017,31.5790476 C112.996992,31.5193651 112.73978,31.4526984 112.433301,31.3796825 C112.214479,31.3320635 111.998216,31.2679365 111.785153,31.1885714 C111.570169,31.1079365 111.37886,31.0025397 111.207386,30.8698413 C111.03847,30.7371429 110.901547,30.575873 110.796614,30.3873016 C110.690403,30.1987302 110.638576,29.9733333 110.638576,29.7092063 C110.638576,29.4349206 110.70128,29.1968254 110.827326,28.992381 C110.951453,28.7879365 111.119729,28.6152381 111.330233,28.4749206 C111.540097,28.3352381 111.776195,28.2285714 112.038525,28.1568254 C112.302136,28.0831746 112.574703,28.047619 112.856869,28.047619 C113.334182,28.047619 113.744314,28.1104762 114.087903,28.2349206 C114.431492,28.3587302 114.731572,28.5333333 114.991343,28.7580952 L114.397581,29.5034921 C114.228025,29.351746 114.014322,29.2228571 113.760309,29.1187302 C113.505657,29.0133333 113.209415,28.9625397 112.869665,28.9625397 C112.520958,28.9625397 112.243271,29.0184127 112.033407,29.1314286 C111.822263,29.2425397 111.71861,29.4273016 111.71861,29.6844444 C111.71861,29.9250794 111.857453,30.1034921 112.13578,30.2190476 C112.414746,30.3365079 112.780729,30.4469841 113.233089,30.5498413 C113.500538,30.6146032 113.748153,30.6888889 113.979131,30.7733333 C114.20947,30.8571429 114.411657,30.9650794 114.584411,31.0977778 C114.759085,31.2292063 114.896648,31.391746 114.997742,31.5853968 C115.097555,31.7777778 115.148742,32.0095238 115.148742,32.2838095 C115.148742,32.5638095 115.084119,32.8107937 114.954233,33.0228571 C114.824987,33.2349206 114.651593,33.4133333 114.434051,33.5580952 C114.215229,33.7022222 113.964415,33.8114286 113.680331,33.8831746 C113.398165,33.9549206 113.103203,33.9911111 112.797364,33.9911111 C111.730127,33.9911111 110.929059,33.7060317 110.39672,33.1365079 L111.064064,32.4152381" id="Fill-4" fill="#0099FF"></path>
                            <path d="M118.834165,33.0520635 C119.124008,33.0520635 119.387619,32.9955556 119.621797,32.8787302 C119.856614,32.7619048 120.053682,32.6095238 120.216199,32.4209524 C120.377436,32.232381 120.501564,32.015873 120.586021,31.7714286 C120.669839,31.5269841 120.712708,31.2768254 120.712708,31.0196825 C120.712708,30.7707937 120.669839,30.5238095 120.586021,30.2793651 C120.501564,30.0355556 120.374877,29.8171429 120.209801,29.6234921 C120.044085,29.4311111 119.846377,29.2774603 119.616678,29.1612698 C119.385059,29.0444444 119.124008,28.9860317 118.834165,28.9860317 C118.543042,28.9860317 118.280712,29.0444444 118.045894,29.1612698 C117.810436,29.2774603 117.613369,29.4298413 117.452131,29.6171429 C117.289614,29.8069841 117.167407,30.0228571 117.082309,30.2685714 C116.997212,30.512381 116.954983,30.7631746 116.954983,31.0196825 C116.954983,31.2768254 116.997212,31.5257143 117.082309,31.7650794 C117.167407,32.0057143 117.292174,32.2228571 117.45853,32.4152381 C117.623606,32.6069841 117.821953,32.7619048 118.052932,32.8787302 C118.281992,32.9955556 118.543042,33.0520635 118.834165,33.0520635 Z M118.834165,33.9911111 C118.397801,33.9911111 117.996627,33.9130159 117.633203,33.7568254 C117.26978,33.6006349 116.956903,33.3860317 116.693292,33.1130159 C116.430962,32.84 116.224936,32.5250794 116.075216,32.1695238 C115.926136,31.8120635 115.851275,31.4279365 115.851275,31.0196825 C115.851275,30.6107937 115.926136,30.2273016 116.075216,29.8704762 C116.224936,29.5142857 116.430962,29.1993651 116.693292,28.9250794 C116.956903,28.6539683 117.26978,28.4393651 117.633203,28.2831746 C117.996627,28.1269841 118.397801,28.047619 118.834165,28.047619 C119.262852,28.047619 119.657627,28.1269841 120.021691,28.2831746 C120.386394,28.4393651 120.701191,28.6539683 120.96864,28.9250794 C121.234809,29.1993651 121.442114,29.5142857 121.592475,29.8704762 C121.742195,30.2273016 121.815775,30.6107937 121.815775,31.0196825 C121.815775,31.4279365 121.742195,31.8120635 121.592475,32.1695238 C121.442114,32.5250794 121.234809,32.84 120.96864,33.1130159 C120.701191,33.3860317 120.386394,33.6006349 120.021691,33.7568254 C119.657627,33.9130159 119.262852,33.9911111 118.834165,33.9911111 Z" id="Fill-5" fill="#0099FF"></path>
                            <polygon id="Fill-6" fill="#0099FF" points="122.750568 33.8222222 123.841479 33.8222222 123.841479 25.7980952 122.750568 25.7980952"></polygon>
                            <path d="M124.993814,28.2285714 L126.084725,28.2285714 L126.084725,31.5136508 C126.084725,32.0419048 126.193496,32.4247619 126.412318,32.6615873 C126.63114,32.8984127 126.945936,33.0165079 127.357987,33.0165079 C127.673424,33.0165079 127.934475,32.9530159 128.1405,32.824127 C128.345246,32.6965079 128.514161,32.5288889 128.642767,32.3244444 C128.772653,32.1212698 128.862869,31.887619 128.916614,31.6273016 C128.967801,31.3657143 128.995314,31.1003175 128.995314,30.8266667 L128.995314,28.2285714 L130.086225,28.2285714 L130.086225,32.6069841 C130.086225,32.8565079 130.086225,33.0711111 130.086225,33.2507937 C130.086225,33.431746 130.090064,33.6228571 130.099021,33.8222222 L129.056737,33.8222222 L129.018987,32.9930159 C128.946686,33.088254 128.85775,33.192381 128.752818,33.3053968 C128.647886,33.4184127 128.518,33.52 128.364441,33.6126984 C128.210242,33.7047619 128.033008,33.7828571 127.830822,33.8457143 C127.627996,33.911746 127.398297,33.944127 127.139805,33.944127 C126.40464,33.944127 125.862064,33.7320635 125.514636,33.311746 C125.167847,32.8901587 124.993814,32.3155556 124.993814,31.5853968 L124.993814,28.2285714" id="Fill-7" fill="#0099FF"></path>
                            <path d="M131.964767,29.1314286 L130.946157,29.1314286 L130.946157,28.2285714 L131.964767,28.2285714 L131.964767,26.4006349 L133.055678,26.4006349 L133.055678,28.2285714 L134.703881,28.2285714 L134.703881,29.1314286 L133.055678,29.1314286 L133.055678,31.8869841 C133.055678,32.3346032 133.125419,32.6431746 133.268102,32.8133333 C133.408864,32.9803175 133.609131,33.0647619 133.866343,33.0647619 C134.077487,33.0647619 134.251521,33.0336508 134.389085,32.9695238 C134.526008,32.9047619 134.663572,32.808254 134.801136,32.6806349 L135.297644,33.3422222 C135.063466,33.5657143 134.82353,33.728254 134.576555,33.8285714 C134.33022,33.9288889 134.037818,33.9796825 133.698068,33.9796825 C133.099186,33.9796825 132.661542,33.8184127 132.383216,33.4977778 C132.10425,33.1765079 131.964767,32.6755556 131.964767,31.9930159 L131.964767,29.1314286" id="Fill-8" fill="#0099FF"></path>
                            <path d="M136.062242,33.8228571 L137.153153,33.8228571 L137.153153,28.2285714 L136.062242,28.2285714 L136.062242,33.8228571 Z M135.988661,27.2304762 L137.213297,27.2304762 L137.213297,26.0146032 L135.988661,26.0146032 L135.988661,27.2304762 Z" id="Fill-9" fill="#0099FF"></path>
                            <path d="M141.116903,33.0520635 C141.408025,33.0520635 141.670356,32.9955556 141.905814,32.8787302 C142.140631,32.7619048 142.337699,32.6095238 142.498936,32.4209524 C142.661453,32.232381 142.785581,32.015873 142.869398,31.7714286 C142.953856,31.5269841 142.996725,31.2768254 142.996725,31.0196825 C142.996725,30.7707937 142.953856,30.5238095 142.869398,30.2793651 C142.785581,30.0355556 142.658894,29.8171429 142.494458,29.6234921 C142.328102,29.4311111 142.129114,29.2774603 141.899415,29.1612698 C141.669716,29.0444444 141.408025,28.9860317 141.116903,28.9860317 C140.82578,28.9860317 140.563449,29.0444444 140.329911,29.1612698 C140.095093,29.2774603 139.897386,29.4298413 139.734869,29.6171429 C139.573631,29.8069841 139.450144,30.0228571 139.366326,30.2685714 C139.281229,30.512381 139.239,30.7631746 139.239,31.0196825 C139.239,31.2768254 139.281229,31.5257143 139.366326,31.7650794 C139.450144,32.0057143 139.574911,32.2228571 139.741267,32.4152381 C139.907623,32.6069841 140.104691,32.7619048 140.336309,32.8787302 C140.564729,32.9955556 140.82578,33.0520635 141.116903,33.0520635 Z M141.116903,33.9911111 C140.681178,33.9911111 140.281284,33.9130159 139.915941,33.7568254 C139.553797,33.6006349 139.24028,33.3860317 138.977949,33.1130159 C138.713699,32.84 138.508953,32.5250794 138.359233,32.1695238 C138.208873,31.8120635 138.134013,31.4279365 138.134013,31.0196825 C138.134013,30.6107937 138.208873,30.2273016 138.359233,29.8704762 C138.508953,29.5142857 138.713699,29.1993651 138.977949,28.9250794 C139.24028,28.6539683 139.553797,28.4393651 139.915941,28.2831746 C140.281284,28.1269841 140.681178,28.047619 141.116903,28.047619 C141.545589,28.047619 141.941644,28.1269841 142.305708,28.2831746 C142.669131,28.4393651 142.983928,28.6539683 143.251377,28.9250794 C143.517547,29.1993651 143.724852,29.5142857 143.876492,29.8704762 C144.024932,30.2273016 144.099792,30.6107937 144.099792,31.0196825 C144.099792,31.4279365 144.024932,31.8120635 143.876492,32.1695238 C143.724852,32.5250794 143.517547,32.84 143.251377,33.1130159 C142.983928,33.3860317 142.669131,33.6006349 142.305708,33.7568254 C141.941644,33.9130159 141.545589,33.9911111 141.116903,33.9911111 Z" id="Fill-10" fill="#0099FF"></path>
                            <path d="M144.991076,29.4438095 C144.991076,29.1955556 144.991076,28.9796825 144.991076,28.8 C144.991076,28.6190476 144.987237,28.4292063 144.97828,28.2285714 L146.020564,28.2285714 L146.057034,29.0704762 C146.130614,28.9739683 146.219551,28.8673016 146.324483,28.751746 C146.429415,28.6349206 146.558021,28.528254 146.71286,28.4330159 C146.86578,28.3365079 147.045572,28.2571429 147.251597,28.192381 C147.457623,28.128254 147.690521,28.095873 147.949013,28.095873 C148.684818,28.095873 149.229953,28.3092063 149.586339,28.7346032 C149.940805,29.16 150.119958,29.7365079 150.119958,30.4666667 L150.119958,33.8222222 L149.027767,33.8222222 L149.027767,30.5498413 C149.027767,30.0292063 148.915157,29.6469841 148.688657,29.4012698 C148.461517,29.1574603 148.142881,29.0355556 147.730191,29.0355556 C147.415394,29.0355556 147.153064,29.0990476 146.943199,29.2266667 C146.732055,29.3555556 146.564419,29.5206349 146.439653,29.7263492 C146.314246,29.9307937 146.22339,30.1631746 146.167085,30.4247619 C146.11078,30.6850794 146.081987,30.951746 146.081987,31.2247619 L146.081987,33.8222222 L144.991076,33.8222222 L144.991076,29.4438095" id="Fill-11" fill="#0099FF"></path>
                            <path d="M151.600525,32.4152381 C151.802712,32.615873 152.045208,32.775873 152.328013,32.895873 C152.611458,33.0165079 152.937771,33.0774603 153.310153,33.0774603 C153.673576,33.0774603 153.976216,33.0190476 154.219992,32.9022222 C154.462487,32.7866667 154.583415,32.6031746 154.583415,32.3542857 C154.583415,32.2266667 154.557182,32.1174603 154.504716,32.0228571 C154.45097,31.9314286 154.363314,31.8495238 154.237267,31.7777778 C154.1125,31.7053968 153.946144,31.64 153.741398,31.5790476 C153.534093,31.5193651 153.277521,31.4526984 152.970403,31.3796825 C152.75286,31.3320635 152.536597,31.2679365 152.322894,31.1885714 C152.107911,31.1079365 151.916602,31.0025397 151.747047,30.8698413 C151.576852,30.7371429 151.438008,30.575873 151.334356,30.3873016 C151.228144,30.1987302 151.176958,29.9733333 151.176958,29.7092063 C151.176958,29.4349206 151.238381,29.1968254 151.364428,28.992381 C151.489195,28.7879365 151.65811,28.6152381 151.867975,28.4749206 C152.076559,28.3352381 152.313936,28.2285714 152.576267,28.1568254 C152.840517,28.0831746 153.111165,28.047619 153.39525,28.047619 C153.872564,28.047619 154.282055,28.1104762 154.626284,28.2349206 C154.969873,28.3587302 155.269314,28.5333333 155.529725,28.7580952 L154.934682,29.5034921 C154.764487,29.351746 154.552064,29.2228571 154.298691,29.1187302 C154.043398,29.0133333 153.747157,28.9625397 153.407407,28.9625397 C153.058699,28.9625397 152.780373,29.0184127 152.570508,29.1314286 C152.360644,29.2425397 152.255072,29.4273016 152.255072,29.6844444 C152.255072,29.9250794 152.393915,30.1034921 152.674161,30.2190476 C152.952487,30.3365079 153.317831,30.4469841 153.77147,30.5498413 C154.03764,30.6146032 154.285894,30.6888889 154.516233,30.7733333 C154.747212,30.8571429 154.949398,30.9650794 155.123432,31.0977778 C155.296826,31.2292063 155.43311,31.391746 155.534203,31.5853968 C155.635936,31.7777778 155.687123,32.0095238 155.687123,32.2838095 C155.687123,32.5638095 155.62186,32.8107937 155.491975,33.0228571 C155.363369,33.2349206 155.189335,33.4133333 154.972432,33.5580952 C154.75361,33.7022222 154.502157,33.8114286 154.219992,33.8831746 C153.935907,33.9549206 153.640945,33.9911111 153.333826,33.9911111 C152.267869,33.9911111 151.468081,33.7060317 150.933182,33.1365079 L151.600525,32.4152381" id="Fill-12" fill="#0099FF"></path>
                            <path d="M73.2615975,29.4673016 C73.2615975,29.2190476 73.2615975,29.0044444 73.2615975,28.8234921 C73.2615975,28.6438095 73.2571186,28.4539683 73.2488008,28.2533333 L74.2923644,28.2533333 L74.3281949,29.0952381 C74.4024153,28.9987302 74.4907119,28.8920635 74.5969237,28.7765079 C74.7031356,28.6596825 74.833661,28.5536508 74.9859407,28.4577778 C75.1395,28.36 75.3192924,28.2806349 75.5259576,28.2171429 C75.7319831,28.1530159 75.9642415,28.1206349 76.2227331,28.1206349 C76.959178,28.1206349 77.5036737,28.3326984 77.8600593,28.7580952 C78.2151653,29.1834921 78.393678,29.7612698 78.393678,30.4901587 L78.393678,33.8457143 L77.3014873,33.8457143 L77.3014873,30.5746032 C77.3014873,30.0539683 77.1888771,29.6704762 76.9630169,29.4266667 C76.7352373,29.1809524 76.4166017,29.0590476 76.0058305,29.0590476 C75.6891144,29.0590476 75.4267839,29.1225397 75.2169195,29.2514286 C75.0057754,29.3790476 74.8381398,29.5453968 74.7146525,29.7511111 C74.5873263,29.9549206 74.4958305,30.1866667 74.4388856,30.448254 C74.3819407,30.7085714 74.3537881,30.9765079 74.3537881,31.248254 L74.3537881,33.8457143 L73.2615975,33.8457143 L73.2615975,29.4673016" id="Fill-13" fill="#0099FF"></path>
                            <path d="M83.1860085,31.2006349 C83.1533771,31.192381 83.0913136,31.1822222 82.9985381,31.1701587 C82.9051229,31.1587302 82.798911,31.1473016 82.6773432,31.1403175 C82.5564153,31.1326984 82.4265297,31.1238095 82.2889661,31.1155556 C82.1514025,31.1079365 82.017678,31.104127 81.889072,31.104127 C81.5813136,31.104127 81.3330593,31.1403175 81.1443093,31.2120635 C80.953,31.2838095 80.8045593,31.3746032 80.6945085,31.4838095 C80.5857373,31.591746 80.5108771,31.711746 80.4705678,31.8444444 C80.4296186,31.975873 80.4091441,32.1022222 80.4091441,32.2228571 C80.4091441,32.527619 80.5153559,32.7587302 80.7245805,32.9149206 C80.9357246,33.0711111 81.2268475,33.1492063 81.5979492,33.1492063 C81.8078136,33.1492063 82.0074407,33.1130159 82.1974703,33.0412698 C82.3875,32.9695238 82.5564153,32.872381 82.7010169,32.7536508 C82.8475381,32.631746 82.9652669,32.4920635 83.0522839,32.3320635 C83.1412203,32.1707937 83.1860085,32.0057143 83.1860085,31.8380952 L83.1860085,31.2006349 Z M83.1988051,33.1726984 C82.9889407,33.4539683 82.7112542,33.6622222 82.3676653,33.7987302 C82.0240763,33.9352381 81.67025,34.0038095 81.3068263,34.0038095 C81.0720085,34.0038095 80.8403898,33.9739683 80.609411,33.9130159 C80.3797119,33.8520635 80.1692076,33.7530159 79.9798178,33.6126984 C79.7897881,33.4730159 79.635589,33.2914286 79.5185,33.0711111 C79.4020508,32.8501587 79.3431864,32.5796825 79.3431864,32.2584127 C79.3431864,31.6571429 79.5543305,31.175873 79.9798178,30.8152381 C80.4033856,30.4546032 81.0157034,30.2742857 81.8167712,30.2742857 C81.9453771,30.2742857 82.0829407,30.2780952 82.2275424,30.2869841 C82.3740636,30.2946032 82.5116271,30.3015873 82.6415127,30.3104762 C82.7701186,30.3180952 82.8827288,30.3263492 82.9799831,30.3339683 C83.0772373,30.3428571 83.1450593,30.3504762 83.1860085,30.3587302 L83.1860085,30.1530159 C83.1860085,29.7365079 83.0586822,29.4374603 82.8053093,29.2577778 C82.5500169,29.0768254 82.2038686,28.9860317 81.7675042,28.9860317 C81.3394576,28.9860317 81.0003475,29.0457143 80.7495339,29.1612698 C80.4993602,29.2774603 80.2894958,29.3955556 80.1180212,29.5155556 L79.6093559,28.7815873 C79.7059703,28.7022222 79.8230593,28.6215873 79.9619025,28.5422222 C80.0981864,28.4615873 80.2607034,28.3860317 80.4456144,28.3187302 C80.6318051,28.2507937 80.8429492,28.1949206 81.0764873,28.1504762 C81.3106653,28.1053968 81.5813136,28.0844444 81.889072,28.0844444 C82.6165593,28.0844444 83.1885678,28.2596825 83.6050975,28.607619 C84.0209873,28.9561905 84.229572,29.4514286 84.229572,30.0933333 L84.229572,32.7396825 C84.229572,32.9479365 84.229572,33.151746 84.229572,33.3485714 C84.229572,33.5447619 84.233411,33.7111111 84.241089,33.8457143 L83.2224788,33.8457143 L83.1988051,33.1726984 Z" id="Fill-14" fill="#0099FF"></path>
                            <path d="M85.3927839,29.4673016 C85.3927839,29.2190476 85.3927839,29.0044444 85.3927839,28.8234921 C85.3927839,28.6438095 85.3895847,28.4539683 85.3819068,28.2533333 L86.4241907,28.2533333 L86.4600212,29.0952381 C86.5329619,28.9987302 86.6225381,28.8920635 86.7261907,28.7765079 C86.8317627,28.6596825 86.9616483,28.5536508 87.1152076,28.4577778 C87.2687669,28.3612698 87.4472797,28.2806349 87.6539449,28.2171429 C87.8599703,28.1530159 88.0909492,28.1206349 88.3513602,28.1206349 C89.0858856,28.1206349 89.6310212,28.3326984 89.9867669,28.7580952 C90.3431525,29.1834921 90.5203856,29.7612698 90.5203856,30.4901587 L90.5203856,33.8457143 L89.4294746,33.8457143 L89.4294746,30.5746032 C89.4294746,30.0539683 89.3155847,29.6704762 89.0897246,29.4266667 C88.8632246,29.1809524 88.544589,29.0590476 88.1325381,29.0590476 C87.8177415,29.0590476 87.5547712,29.1225397 87.3449068,29.2514286 C87.1350424,29.3790476 86.9674068,29.5453968 86.8413602,29.7511111 C86.7165932,29.9549206 86.6263771,30.1866667 86.570072,30.448254 C86.5124873,30.7085714 86.4843347,30.9765079 86.4843347,31.248254 L86.4843347,33.8457143 L85.3927839,33.8457143 L85.3927839,29.4673016" id="Fill-15" fill="#0099FF"></path>
                            <path d="M96.5149576,33.0774603 C96.2641441,33.3587302 95.9551059,33.584127 95.5878432,33.7568254 C95.2205805,33.9288889 94.7931737,34.015873 94.3094619,34.015873 C93.855822,34.015873 93.4456907,33.9415873 93.078428,33.792381 C92.7111653,33.6450794 92.398928,33.4406349 92.1449153,33.1790476 C91.8902627,32.9187302 91.6938347,32.6057143 91.5562712,32.2412698 C91.4187076,31.8768254 91.3502458,31.4774603 91.3502458,31.0444444 C91.3502458,30.6342857 91.4225466,30.2507937 91.5690678,29.8888889 C91.7136695,29.528254 91.9177754,29.2133333 92.1813856,28.944127 C92.4437161,28.6761905 92.7546737,28.4628571 93.1148983,28.3066667 C93.4744831,28.1504762 93.8718178,28.072381 94.3094619,28.072381 C94.7854958,28.072381 95.2052246,28.1568254 95.5705678,28.3250794 C95.9339915,28.4939683 96.2436695,28.7219048 96.5040805,29.0107937 L95.7881102,29.6965079 C95.6179153,29.488254 95.4118898,29.3231746 95.1706737,29.2031746 C94.928178,29.0831746 94.6408941,29.0222222 94.3094619,29.0222222 C94.018339,29.0222222 93.7572881,29.0780952 93.5269492,29.1860317 C93.2959703,29.2939683 93.1021017,29.4412698 92.9447034,29.6298413 C92.7873051,29.8196825 92.6663771,30.0355556 92.5812797,30.2793651 C92.4961822,30.5250794 92.4552331,30.7790476 92.4552331,31.0444444 C92.4552331,31.3003175 92.4961822,31.551746 92.5812797,31.7961905 C92.6663771,32.0406349 92.7873051,32.2577778 92.9447034,32.4444444 C93.1021017,32.6330159 93.2959703,32.7847619 93.5269492,32.895873 C93.7572881,33.0088889 94.018339,33.0647619 94.3094619,33.0647619 C94.6408941,33.0647619 94.9364958,33.0025397 95.2007458,32.8787302 C95.4630763,32.7549206 95.679339,32.5873016 95.8488941,32.3790476 L96.5149576,33.0774603" id="Fill-16" fill="#0099FF"></path>
                            <path d="M97.4759831,33.8463492 L98.5668941,33.8463492 L98.5668941,28.2533333 L97.4759831,28.2533333 L97.4759831,33.8463492 Z M97.4024025,27.2546032 L98.6270381,27.2546032 L98.6270381,26.0393651 L97.4024025,26.0393651 L97.4024025,27.2546032 Z" id="Fill-17" fill="#0099FF"></path>
                            <path d="M103.423208,31.2006349 C103.389297,31.192381 103.327233,31.1822222 103.234458,31.1701587 C103.141042,31.1587302 103.033551,31.1473016 102.911983,31.1403175 C102.792335,31.1326984 102.662449,31.1238095 102.524886,31.1155556 C102.387322,31.1079365 102.254877,31.104127 102.124992,31.104127 C101.817233,31.104127 101.568979,31.1403175 101.378949,31.2120635 C101.188919,31.2838095 101.039199,31.3746032 100.930428,31.4838095 C100.821657,31.591746 100.746797,31.711746 100.706487,31.8444444 C100.665538,31.975873 100.646343,32.1022222 100.646343,32.2228571 C100.646343,32.527619 100.751275,32.7587302 100.96114,32.9149206 C101.171644,33.0711111 101.461487,33.1492063 101.833869,33.1492063 C102.043733,33.1492063 102.24464,33.1130159 102.43339,33.0412698 C102.623419,32.9695238 102.792335,32.872381 102.936936,32.7536508 C103.083458,32.631746 103.199907,32.4920635 103.288203,32.3320635 C103.378419,32.1707937 103.423208,32.0057143 103.423208,31.8380952 L103.423208,31.2006349 Z M103.434725,33.1726984 C103.22486,33.4539683 102.947174,33.6622222 102.603585,33.7987302 C102.259996,33.9352381 101.907449,34.0038095 101.544025,34.0038095 C101.307928,34.0038095 101.076309,33.9739683 100.845331,33.9130159 C100.614992,33.8520635 100.405127,33.7530159 100.215097,33.6126984 C100.025708,33.4730159 99.8715085,33.2914286 99.7556992,33.0711111 C99.6379703,32.8501587 99.5778263,32.5796825 99.5778263,32.2584127 C99.5778263,31.6571429 99.79025,31.175873 100.215097,30.8152381 C100.640585,30.4546032 101.252903,30.2742857 102.052691,30.2742857 C102.181297,30.2742857 102.31886,30.2780952 102.463462,30.2869841 C102.609983,30.2946032 102.746267,30.3015873 102.876153,30.3104762 C103.006038,30.3180952 103.119928,30.3263492 103.215903,30.3339683 C103.311877,30.3428571 103.382258,30.3504762 103.423208,30.3587302 L103.423208,30.1530159 C103.423208,29.7365079 103.294602,29.4374603 103.040589,29.2577778 C102.785936,29.0780952 102.439788,28.9860317 102.003424,28.9860317 C101.576017,28.9860317 101.234987,29.0457143 100.985453,29.1612698 C100.73528,29.2774603 100.525415,29.3955556 100.35522,29.5155556 L99.8452754,28.7815873 C99.9431695,28.7022222 100.060258,28.6215873 100.196542,28.5422222 C100.335386,28.4615873 100.496623,28.3860317 100.681534,28.3187302 C100.867725,28.2507937 101.077589,28.1949206 101.312407,28.1504762 C101.546585,28.1053968 101.817233,28.0844444 102.124992,28.0844444 C102.852479,28.0844444 103.424487,28.2596825 103.840377,28.607619 C104.256907,28.9561905 104.465492,29.4514286 104.465492,30.0933333 L104.465492,32.7396825 C104.465492,32.9479365 104.465492,33.151746 104.465492,33.3485714 C104.465492,33.5447619 104.468051,33.7111111 104.477008,33.8457143 L103.458398,33.8457143 L103.434725,33.1726984 Z" id="Fill-18" fill="#0099FF"></path>
                            <polygon id="Fill-19" fill="#0099FF" points="105.835369 33.8457143 106.92628 33.8457143 106.92628 25.8228571 105.835369 25.8228571"></polygon>
                            <path d="M70.7406653,33.8463492 L71.8315763,33.8463492 L71.8315763,28.2520635 L70.7406653,28.2520635 L70.7406653,33.8463492 Z M70.6683644,27.2539683 L71.8923602,27.2539683 L71.8923602,26.0387302 L70.6683644,26.0387302 L70.6683644,27.2539683 Z" id="Fill-20" fill="#0099FF"></path>
                            <path d="M69.5646568,25.7555556 C69.2773729,25.6634921 68.9849703,25.6177778 68.6861695,25.6177778 C68.4270381,25.6177778 68.1807034,25.6590476 67.9465254,25.7434921 C67.7117076,25.8285714 67.5037627,25.9587302 67.3220508,26.1346032 C67.1396992,26.3111111 66.9944576,26.5371429 66.8856864,26.8146032 C66.7762754,27.0914286 66.7218898,27.4184127 66.7218898,27.7955556 L66.7218898,28.2520635 L65.7039195,28.2520635 L65.7039195,29.1549206 L66.7218898,29.1549206 L66.7218898,33.8457143 L67.8134407,33.8457143 L67.8134407,29.1549206 L69.4251737,29.1549206 L69.4251737,28.2520635 L67.8134407,28.2520635 L67.8134407,27.8914286 C67.8134407,27.4025397 67.9074958,27.0565079 68.0981653,26.8571429 C68.2875551,26.655873 68.5402881,26.5555556 68.8557246,26.5555556 C69.0406356,26.5555556 69.2191483,26.5961905 69.3925424,26.6698413 L69.9498347,25.9307937 C69.8257076,25.8590476 69.6983814,25.7987302 69.5646568,25.7555556" id="Fill-21" fill="#0099FF"></path>
                            <path d="M67.3700381,41.9136508 C67.4992839,42.0184127 67.6854746,42.1187302 67.9279703,42.2139683 C68.1698263,42.3104762 68.4731059,42.3593651 68.8371695,42.3593651 C69.1116568,42.3593651 69.3643898,42.3079365 69.5947288,42.2088889 C69.8250678,42.1085714 70.0227754,41.9669841 70.1884915,41.7873016 C70.3542076,41.607619 70.4815339,41.3968254 70.5704703,41.1561905 C70.6600466,40.9155556 70.7041949,40.6501587 70.7041949,40.3612698 C70.7041949,40.0895238 70.6734831,39.831746 70.6126992,39.5911111 C70.5525551,39.351746 70.4553008,39.1384127 70.3222161,38.9536508 C70.1884915,38.7701587 70.0170169,38.624127 69.8071525,38.5161905 C69.5960085,38.4069841 69.3381568,38.352381 69.0310381,38.352381 C68.642661,38.352381 68.3112288,38.4590476 68.0367415,38.6711111 C67.7616144,38.8831746 67.5677458,39.1942857 67.4544958,39.6038095 C67.4141864,39.7326984 67.3898729,39.8704762 67.3821949,40.0190476 C67.3738771,40.167619 67.3700381,40.3219048 67.3700381,40.4819048 L67.3700381,41.9136508 Z M66.2906441,38.7492063 C66.2906441,38.5009524 66.2906441,38.2863492 66.2906441,38.1053968 C66.2906441,37.9244444 66.2868051,37.7346032 66.2791271,37.5352381 L67.321411,37.5352381 L67.3578814,38.3288889 C67.4141864,38.2571429 67.4954449,38.1688889 67.6003771,38.0634921 C67.7053093,37.9593651 67.8364746,37.8603175 67.9945127,37.7631746 C68.151911,37.6666667 68.3355424,37.5847619 68.5460466,37.5168254 C68.755911,37.448254 68.9984068,37.4139683 69.2735339,37.4139683 C69.7098983,37.4139683 70.0880381,37.4946032 70.4073136,37.6552381 C70.726589,37.8152381 70.990839,38.0311111 71.2013432,38.304127 C71.4105678,38.5771429 71.5666864,38.8907937 71.6677797,39.2425397 C71.7688729,39.5961905 71.8194195,39.9695238 71.8194195,40.3612698 C71.8194195,40.8673016 71.7317627,41.304127 71.5583686,41.6736508 C71.3849746,42.0431746 71.1584746,42.3466667 70.8795085,42.5873016 C70.6011822,42.8279365 70.2895847,43.0063492 69.9466356,43.1231746 C69.6030466,43.2380952 69.2652161,43.2977778 68.9337839,43.2977778 C68.5543644,43.2977778 68.2491653,43.2596825 68.0188263,43.1828571 C67.7878475,43.1066667 67.5715847,43.0247619 67.3700381,42.935873 L67.3700381,45.5352381 L66.2906441,45.5352381 L66.2906441,38.7492063 Z" id="Fill-22" fill="#0099FF"></path>
                            <path d="M76.3276653,40.4819048 C76.2956737,40.4742857 76.2329703,40.464127 76.1395551,40.4520635 C76.0467797,40.4393651 75.9392881,40.4292063 75.8183602,40.4222222 C75.698072,40.4133333 75.5681864,40.4057143 75.4306229,40.3974603 C75.2930593,40.3898413 75.1593347,40.3860317 75.0307288,40.3860317 C74.7236102,40.3860317 74.4747161,40.4222222 74.2846864,40.4939683 C74.0952966,40.5669841 73.9462161,40.6565079 73.8374449,40.7644444 C73.7286737,40.8736508 73.6538136,40.9936508 73.6128644,41.1250794 C73.5725551,41.2590476 73.5527203,41.384127 73.5527203,41.5047619 C73.5527203,41.8095238 73.6576525,42.0393651 73.8687966,42.1968254 C74.0773814,42.3530159 74.3678644,42.432381 74.7396059,42.432381 C74.9494703,42.432381 75.1497373,42.3949206 75.3410466,42.3219048 C75.5291568,42.2501587 75.698072,42.1542857 75.8420339,42.0342857 C75.9879153,41.9136508 76.1056441,41.7739683 76.1945805,41.6126984 C76.2828771,41.4526984 76.3276653,41.287619 76.3276653,41.12 L76.3276653,40.4819048 Z M76.3404619,42.4546032 C76.1293178,42.735873 75.8516314,42.9447619 75.509322,43.0806349 C75.1657331,43.2171429 74.8119068,43.2857143 74.4484831,43.2857143 C74.2136653,43.2857143 73.9833263,43.255873 73.7523475,43.1949206 C73.5220085,43.1339683 73.3121441,43.0349206 73.1227542,42.8946032 C72.9314449,42.7549206 72.7785254,42.5733333 72.6620763,42.3530159 C72.5443475,42.1320635 72.4854831,41.8615873 72.4854831,41.5409524 C72.4854831,40.9390476 72.6979068,40.4577778 73.1227542,40.0971429 C73.546322,39.7365079 74.158,39.5555556 74.9571483,39.5555556 C75.0870339,39.5555556 75.2245975,39.5587302 75.3691992,39.567619 C75.5157203,39.5752381 75.6532839,39.584127 75.7818898,39.5911111 C75.9104958,39.6 76.0243856,39.607619 76.1216398,39.6146032 C76.2182542,39.6247619 76.2867161,39.632381 76.3276653,39.6406349 L76.3276653,39.4349206 C76.3276653,39.0196825 76.200339,38.7193651 75.9469661,38.5396825 C75.6916737,38.3587302 75.3455254,38.2679365 74.9098008,38.2679365 C74.4811144,38.2679365 74.1420042,38.3263492 73.8924703,38.4431746 C73.6410169,38.5593651 73.4317924,38.6774603 73.2615975,38.7974603 L72.7522924,38.0634921 C72.8495466,37.984127 72.9672754,37.9034921 73.1041992,37.824127 C73.2411229,37.7434921 73.403,37.6692063 73.5885508,37.6012698 C73.7747415,37.5326984 73.9846059,37.4755556 74.2187839,37.432381 C74.452322,37.3873016 74.7236102,37.3663492 75.0307288,37.3663492 C75.7582161,37.3663492 76.3302246,37.5415873 76.7454746,37.8901587 C77.1626441,38.2380952 77.3699492,38.7346032 77.3699492,39.3752381 L77.3699492,42.0215873 C77.3699492,42.2304762 77.3699492,42.4336508 77.3699492,42.6292063 C77.3699492,42.8266667 77.3737881,42.9930159 77.3827458,43.1295238 L76.3641356,43.1295238 L76.3404619,42.4546032 Z" id="Fill-23" fill="#0099FF"></path>
                            <path d="M78.4998898,38.6774603 C78.4998898,38.4457143 78.4998898,38.2419048 78.4998898,38.0698413 C78.4998898,37.8971429 78.4960508,37.7187302 78.4870932,37.5352381 L79.5293771,37.5352381 L79.5658475,38.4368254 C79.6323898,38.3415873 79.7155678,38.2349206 79.8205,38.1193651 C79.926072,38.0025397 80.0533983,37.895873 80.2031186,37.7993651 C80.3534788,37.7028571 80.5268729,37.6209524 80.7245805,37.552381 C80.922928,37.4844444 81.1507076,37.4495238 81.4091992,37.4495238 C81.5301271,37.4495238 81.6414576,37.4584127 81.7438305,37.4742857 C81.8442839,37.4907937 81.9389788,37.5155556 82.0279153,37.5466667 L81.7854195,38.5568254 C81.6388983,38.5009524 81.4539873,38.4730159 81.2281271,38.4730159 C80.9933093,38.4730159 80.7770466,38.5174603 80.579339,38.6057143 C80.3803517,38.6933333 80.2095169,38.815873 80.0629958,38.9726984 C79.9183941,39.1288889 79.8032246,39.3111111 79.7181271,39.5193651 C79.6336695,39.7288889 79.5908008,39.9485714 79.5908008,40.1803175 L79.5908008,43.1295238 L78.4998898,43.1295238 L78.4998898,38.6774603" id="Fill-24" fill="#0099FF"></path>
                            <path d="M83.2787839,38.4368254 L82.5474576,38.4368254 L82.5474576,37.5352381 L83.2787839,37.5352381 L83.2787839,35.7060317 L84.3696949,35.7060317 L84.3696949,37.5352381 L86.0178983,37.5352381 L86.0178983,38.4368254 L84.3696949,38.4368254 L84.3696949,41.192381 C84.3696949,41.6412698 84.4394364,41.9498413 84.580839,42.1187302 C84.7222415,42.2857143 84.9231483,42.3714286 85.1803602,42.3714286 C85.3921441,42.3714286 85.5655381,42.3390476 85.7031017,42.2749206 C85.8406653,42.2101587 85.9782288,42.1136508 86.1138729,41.9860317 L86.6129407,42.648254 C86.3781229,42.8711111 86.1369068,43.0349206 85.890572,43.1339683 C85.6429576,43.2349206 85.3505551,43.2857143 85.0120847,43.2857143 C84.4132034,43.2857143 83.9749195,43.1257143 83.6959534,42.8044444 C83.4176271,42.4831746 83.2787839,41.9822222 83.2787839,41.3003175 L83.2787839,38.4368254" id="Fill-25" fill="#0099FF"></path>
                            <path d="M87.3890551,38.7492063 C87.3890551,38.5009524 87.3890551,38.2863492 87.3890551,38.1053968 C87.3890551,37.9244444 87.3852161,37.7346032 87.3775381,37.5352381 L88.419822,37.5352381 L88.4562924,38.3771429 C88.5298729,38.2806349 88.6175297,38.1739683 88.7224619,38.0571429 C88.8286737,37.9422222 88.9572797,37.8355556 89.1095593,37.7396825 C89.2631186,37.6431746 89.4435508,37.5638095 89.6495763,37.4977778 C89.8556017,37.4336508 90.0865805,37.4025397 90.3469915,37.4025397 C91.0815169,37.4025397 91.6279322,37.615873 91.9823983,38.04 C92.3387839,38.4653968 92.5160169,39.0431746 92.5160169,39.7720635 L92.5160169,43.1295238 L91.4251059,43.1295238 L91.4251059,39.8565079 C91.4251059,39.335873 91.3112161,38.952381 91.0853559,38.7073016 C90.8588559,38.4628571 90.5402203,38.3415873 90.1281695,38.3415873 C89.8120932,38.3415873 89.5510424,38.4044444 89.3392585,38.5333333 C89.1293941,38.6609524 88.963678,38.8273016 88.8382712,39.0330159 C88.7122246,39.2368254 88.6207288,39.4698413 88.5657034,39.7301587 C88.5087585,39.9904762 88.4812458,40.2584127 88.4812458,40.5301587 L88.4812458,43.1295238 L87.3890551,43.1295238 L87.3890551,38.7492063" id="Fill-26" fill="#0099FF"></path>
                            <path d="M97.823411,39.8444444 C97.7907797,39.4114286 97.6372203,39.0431746 97.3620932,38.7377778 C97.0876059,38.4330159 96.6998686,38.2806349 96.1988814,38.2806349 C95.9403898,38.2806349 95.7081314,38.3250794 95.5014661,38.4133333 C95.2954407,38.5009524 95.1194873,38.6177778 94.9742458,38.7619048 C94.8283644,38.9053968 94.7157542,39.0730159 94.6357754,39.2615873 C94.5545169,39.4501587 94.5097288,39.6444444 94.5007712,39.8444444 L97.823411,39.8444444 Z M98.8055508,42.3104762 C98.740928,42.384127 98.6430339,42.4755556 98.514428,42.5873016 C98.3845424,42.7003175 98.2169068,42.808254 98.0108814,42.912381 C97.8048559,43.0177778 97.5623602,43.1066667 97.2833941,43.1828571 C97.0050678,43.2596825 96.6877119,43.2977778 96.3326059,43.2977778 C95.8956017,43.2977778 95.4957076,43.2247619 95.1316441,43.0806349 C94.7682203,42.935873 94.4566229,42.7326984 94.1981314,42.4673016 C93.9396398,42.2031746 93.7393729,41.8850794 93.5973305,41.5168254 C93.4572076,41.1473016 93.3861864,40.7384127 93.3861864,40.2895238 C93.3861864,39.88 93.4546483,39.4984127 93.5922119,39.1409524 C93.7297754,38.784127 93.9230042,38.4749206 94.173178,38.2133333 C94.4246314,37.9542857 94.7221525,37.7473016 95.0657415,37.5949206 C95.4093305,37.4425397 95.7868305,37.3663492 96.1988814,37.3663492 C96.6838729,37.3663492 97.0997627,37.4584127 97.4471907,37.6431746 C97.7946186,37.8279365 98.0799831,38.0711111 98.3020042,38.3771429 C98.5246653,38.6812698 98.6871822,39.0304762 98.7933941,39.424127 C98.8983263,39.815873 98.9507924,40.2247619 98.9507924,40.6501587 L94.5007712,40.6501587 C94.5097288,40.8996825 94.5641144,41.127619 94.6658475,41.335873 C94.765661,41.544127 94.9019449,41.7244444 95.0702203,41.8780952 C95.2416949,42.0304762 95.4355636,42.1504762 95.6531059,42.2374603 C95.8712881,42.3269841 96.1016271,42.3714286 96.3441229,42.3714286 C96.8214364,42.3714286 97.2123729,42.2907937 97.5201314,42.1295238 C97.82725,41.9695238 98.049911,41.8133333 98.1874746,41.6609524 L98.8055508,42.3104762 Z" id="Fill-27" fill="#0099FF"></path>
                            <path d="M99.8529534,38.6774603 C99.8529534,38.4457143 99.8529534,38.2419048 99.8529534,38.0698413 C99.8529534,37.8971429 99.8491144,37.7187302 99.8414364,37.5352381 L100.882441,37.5352381 L100.920191,38.4368254 C100.985453,38.3415873 101.068631,38.2349206 101.174203,38.1193651 C101.280415,38.0025397 101.407742,37.895873 101.556182,37.7993651 C101.706542,37.7028571 101.879936,37.6209524 102.077644,37.552381 C102.275992,37.4844444 102.503771,37.4495238 102.763542,37.4495238 C102.88447,37.4495238 102.994521,37.4584127 103.096894,37.4742857 C103.197347,37.4907937 103.292042,37.5155556 103.380979,37.5466667 L103.138483,38.5568254 C102.993242,38.5009524 102.807051,38.4730159 102.581191,38.4730159 C102.346373,38.4730159 102.13011,38.5174603 101.932403,38.6057143 C101.734055,38.6933333 101.56386,38.815873 101.416059,38.9726984 C101.272737,39.1288889 101.156288,39.3111111 101.071191,39.5193651 C100.986733,39.7288889 100.943864,39.9485714 100.943864,40.1803175 L100.943864,43.1295238 L99.8529534,43.1295238 L99.8529534,38.6774603" id="Fill-28" fill="#0099FF"></path>
                        </g>
                    </g>
                </g>
            </g>
        </g>
    </g>
</svg>