<svg width="19" height="18" viewBox="0 0 19 18" xmlns="http://www.w3.org/2000/svg"><title>_10</title><path d="M15.36.003c.73.092 1.396.46 1.862 1.027.54.593.86 1.35.91 2.15v11.64c.018.845-.307 1.66-.9 2.26-.55.593-1.324.927-2.132.92H3.05c-.78.023-1.536-.27-2.098-.81-.55-.513-.888-1.21-.952-1.96V2.77C.05 2.052.353 1.38.855.864 1.327.373 1.96.065 2.64 0h12.72v.003zM2.64 1.95c-.077.002-.152.024-.217.065-.064.042-.14.064-.216.065L9 8.027l6.794-5.95c-.056-.063-.133-.105-.217-.12-.072-.006-.144-.01-.216-.01H2.64v.003zm13.565 11.9V2.903L9 11.08 1.948 2.904V13.85l4.283-3.462.412.563-4.154 5.106H15.36l-4.153-5.105.563-.562 4.284 3.46h.15z" fill="#535353" fill-rule="evenodd"/></svg>
