<?xml version="1.0" encoding="UTF-8"?>
<svg width="28px" height="32px" viewBox="0 0 28 32" version="1.1" xmlns="http://www.w3.org/2000/svg" xmlns:xlink="http://www.w3.org/1999/xlink">
    <!-- Generator: Sketch 47.1 (45422) - http://www.bohemiancoding.com/sketch -->
    <title>z copy</title>
    <desc>Created with Sketch.</desc>
    <defs></defs>
    <g id="Desktop" stroke="none" stroke-width="1" fill="none" fill-rule="evenodd">
        <g id="02.-Desktop-HD-Interna-Compartilhar-Enviado" transform="translate(-829.000000, -1424.000000)" fill="#0099FF">
            <g id="02.-Body">
                <g id="Documentos-e-Laudos" transform="translate(476.000000, 1340.000000)">
                    <g id="bt-documentos" transform="translate(333.000000, 66.000000)">
                        <path d="M44.311,36.406 C44.3948138,36.4908291 44.4680163,36.5855222 44.529,36.688 C44.5851746,36.7714394 44.6176616,36.8685549 44.623,36.969 C44.6649978,37.2537933 44.6649978,37.5432067 44.623,37.828 C44.5890375,38.087109 44.5040678,38.33692 44.373,38.563 C44.2927695,38.6645749 44.1980987,38.7538552 44.092,38.828 C43.9776516,38.9061723 43.8508448,38.9643344 43.717,39 C43.6183888,39.0235173 43.5180787,39.0392326 43.417,39.047 C43.302,39.058 43.183,39.063 43.058,39.063 C42.1639766,39.0306982 41.2795421,38.8672883 40.433,38.578 C39.4106501,38.2642346 38.4255095,37.8400675 37.495,37.313 C36.2128726,37.493851 34.9406111,37.7388247 33.683,38.047 C32.3496667,38.3703333 31.0683333,38.7296667 29.839,39.125 C29.0700248,40.5675001 28.1422684,41.9195557 27.073,43.156 C26.5499394,43.8570065 25.767489,44.3188395 24.901,44.438 C24.7745534,44.4376483 24.6486223,44.421865 24.526,44.391 C24.4092266,44.3624293 24.2946098,44.3256717 24.183,44.281 L23.651,44 C23.4913491,43.9292666 23.3784155,43.7824529 23.351,43.61 C23.3200172,43.4383598 23.3156326,43.2629739 23.338,43.09 C23.5218914,42.4575486 23.8790103,41.8891373 24.369,41.449 C25.0462318,40.7822682 25.8017346,40.2000274 26.619,39.715 C26.719,39.652 26.942,39.533 27.275,39.356 C27.4468977,39.2568549 27.6245453,39.1680311 27.807,39.09 L28.369,38.809 C28.619,38.351 28.89,37.856 29.182,37.324 C29.474,36.792 29.7773333,36.214 30.092,35.59 L30.186,35.434 C30.498,34.83 30.8156667,34.1996667 31.139,33.543 C31.4623333,32.8863333 31.759,32.225 32.029,31.559 L32.217,31.059 C31.8423333,29.601 31.5663333,28.3093333 31.389,27.184 C31.206524,26.2534748 31.2225398,25.2949098 31.436,24.371 C31.5168999,24.1239144 31.6827041,23.9134706 31.904,23.777 C32.1483709,23.6276018 32.4306669,23.5519061 32.717,23.559 L33.061,23.559 C33.3206711,23.5484071 33.5734442,23.6440998 33.761,23.824 C33.931421,23.9930749 34.0738669,24.1881786 34.183,24.402 L34.245,24.559 C34.266,24.642 34.281,24.705 34.292,24.746 C34.3041884,24.8078936 34.3095538,24.8709369 34.308,24.934 C34.331027,26.6642857 34.1738464,28.3922672 33.839,30.09 C33.818,30.152 33.797,30.22 33.776,30.29 C33.755,30.36 33.734,30.441 33.714,30.524 C34.0224808,31.3735346 34.4249812,32.1859145 34.914,32.946 C35.3757276,33.6737675 35.9270431,34.3406544 36.555,34.931 C36.7773768,35.1504015 37.0235706,35.3442707 37.289,35.509 C37.5703333,35.6863333 37.8463333,35.8476667 38.117,35.993 C38.721,35.9103333 39.3146667,35.848 39.898,35.806 C40.4813333,35.764 41.0126667,35.743 41.492,35.743 C42.0965002,35.7502569 42.6990465,35.8131895 43.292,35.931 C43.6673957,35.9901527 44.0190666,36.1521429 44.308,36.399 L44.308,36.399 L44.311,36.406 Z M24.623,43.438 C25.0882412,43.1702802 25.5056229,42.8269119 25.858,42.422 C26.5578059,41.6344948 27.1803326,40.7815764 27.717,39.875 C27.6121175,39.9580025 27.511961,40.0468079 27.417,40.141 C27.3579194,40.2066055 27.2907101,40.2644055 27.217,40.313 C26.5724138,40.8316837 25.9856837,41.4184138 25.467,42.063 C25.1118043,42.4716821 24.826625,42.936281 24.623,43.438 L24.623,43.438 L24.623,43.438 Z M32.938,24.25 C32.7772803,24.7326491 32.7237032,25.2445319 32.781,25.75 C32.781,26.146 32.8073333,26.6146667 32.86,27.156 C32.8965311,27.6228153 32.9854226,28.0840446 33.125,28.531 C33.2876169,28.2406943 33.4135794,27.9313303 33.5,27.61 C33.6104353,27.1860538 33.6526307,26.7472218 33.625,26.31 C33.6283276,25.8355597 33.5705185,25.3626674 33.453,24.903 C33.4513187,24.5923713 33.239351,24.3223697 32.938,24.247 L32.938,24.247 L32.938,24.25 Z M30.469,37.906 C31.281,37.6153333 32.1506667,37.3393333 33.078,37.078 C34.0053333,36.8166667 35.0003333,36.5833333 36.063,36.378 C35.979,36.316 35.906,36.259 35.844,36.206 C35.7783864,36.1519733 35.7156345,36.094562 35.656,36.034 C35.1129109,35.5955657 34.6205216,35.0978097 34.188,34.55 C33.7370149,33.978219 33.3393535,33.3663293 33,32.722 C32.8126667,33.2013333 32.594,33.7273333 32.344,34.3 C32.094,34.8726667 31.771,35.5236667 31.375,36.253 C31.229,36.545 31.078,36.8316667 30.922,37.113 C30.766,37.394 30.614,37.659 30.469,37.913 L30.469,37.913 L30.469,37.906 Z M43.906,37.813 C43.9768746,37.7274577 43.9833739,37.6055956 43.922,37.513 C43.7777498,37.2931669 43.5424765,37.1496539 43.281,37.122 C42.881,37.039 42.589,36.987 42.391,36.966 C42.193,36.945 41.891,36.935 41.5,36.935 C41.292,36.935 41.068,36.94 40.828,36.95 C40.588,36.96 40.3433333,36.9756667 40.094,36.997 C40.7606667,37.289 41.344,37.5183333 41.844,37.685 C42.2653032,37.8374012 42.7081741,37.9217897 43.156,37.935 C43.2972187,37.933657 43.4381936,37.922967 43.578,37.903 C43.6927455,37.8959276 43.8046189,37.8642074 43.906,37.81 L43.906,37.81 L43.906,37.813 Z M46.219,24.219 C47.2882154,25.3981526 47.9173519,26.9104114 48,28.5 L48,47.5 C47.9967014,48.8793433 46.8793433,49.9967014 45.5,50 L22.5,50 C21.1211112,49.9956086 20.0043914,48.8788888 20,47.5 L20,20.5 C20.0054809,19.1215648 21.1215648,18.0054809 22.5,18 L37.5,18 C39.0893124,18.0838642 40.6011795,18.7128376 41.781,19.781 L46.219,24.219 L46.219,24.219 L46.219,24.219 Z M44.813,25.656 L40.338,21.19 C40.2967775,21.1279603 40.243775,21.0746181 40.182,21.033 L39.994,20.908 L39.994,26.002 L45.088,26.002 L44.963,25.815 C44.9217775,25.7529603 44.868775,25.6996181 44.807,25.658 L44.807,25.658 L44.813,25.656 Z M46,47.5 L46,28.5 C45.9999568,28.4164431 45.994948,28.3329626 45.985,28.25 C45.9735996,28.1659209 45.9579125,28.0824789 45.938,28 L37.998,28 L37.998,20.063 C37.9156429,20.0425246 37.8321701,20.0268317 37.748,20.016 C37.6650593,20.0056965 37.5815775,20.0003537 37.498,20 L22.498,20 C22.363976,19.9951936 22.2339873,20.046327 22.1391571,20.1411571 C22.044327,20.2359873 21.9931936,20.365976 21.998,20.5 L21.998,47.5 C21.9925857,47.6341949 22.0435233,47.764542 22.1384906,47.8595094 C22.233458,47.9544767 22.3638051,48.0054143 22.498,48 L45.498,48 C45.6322807,48.005722 45.7628095,47.9548834 45.8578464,47.8598464 C45.9528834,47.7648095 46.003722,47.6342807 45.998,47.5 L45.998,47.5 L46,47.5 Z" id="z-copy"></path>
                    </g>
                </g>
            </g>
        </g>
    </g>
</svg>