<svg width="17" height="13" viewBox="0 0 17 13" xmlns="http://www.w3.org/2000/svg"><title>_9-2</title><path d="M1.9 5.52l.004-.003H1.57c-.057 0-.113-.002-.17-.01-.065-.01-.125-.043-.168-.092-.004-.075-.02-.15-.044-.22-.033-.075-.015-.16.044-.22.113-.154.253-.288.414-.397.15-.103.31-.185.483-.246L3.15.542c.07-.13.155-.248.255-.356.1-.12.254-.188.414-.186h5.754c.127.005.253.034.37.085.124.043.23.127.298.237.104.096.19.21.255.333.052.103.08.216.08.33h-.792l.915 3.452h.897v-1.73c-.005-.2.074-.396.22-.54.15-.15.358-.228.572-.22h.668l-.23.664h-.333c-.06.002-.118.026-.16.07-.04.033-.066.082-.07.134V4.44h2.817c.15-.006.302.023.44.083.13.066.25.152.35.254.12.103.208.234.256.38.054.155.08.318.08.48l-.335 2.59c.35.24.633.56.82.93.2.384.307.808.307 1.237.01.683-.258 1.342-.748 1.836-.477.49-1.145.77-1.844.77-.7 0-1.366-.28-1.843-.77-.486-.496-.75-1.155-.74-1.836.004-.288.054-.573.15-.846.093-.28.233-.543.414-.778h-1.022l-.228.54H9.116l-.23-.54h-.79v.118c.004 1.078-.418 2.12-1.18 2.91-.363.373-.8.672-1.284.88-1.01.43-2.16.43-3.168 0-.485-.208-.922-.507-1.285-.88-.37-.38-.664-.826-.863-1.31-.213-.51-.32-1.052-.317-1.6.036-.676.23-1.335.563-1.93.325-.57.783-1.063 1.338-1.438zm2.253 5.957l.002-.003c.69-.003 1.346-.282 1.812-.77.512-.477.8-1.134.792-1.82.01-.682-.258-1.342-.748-1.835-.475-.505-1.153-.786-1.86-.77-.683.005-1.333.286-1.794.772-1.04 1.023-1.058 2.65-.044 3.697.48.478 1.148.74 1.84.727zm2.71-7.14V4.33h2.48c.055 0 .108-.005.16-.017.043-.006.073-.043.07-.085-.006-.042.014-.085.053-.108.038-.023.06-.065.053-.108l-.564-2.826c-.007-.055-.04-.105-.088-.135-.072-.05-.16-.073-.247-.068H6.864c-.062.002-.12.03-.158.076-.054.072-.08.16-.07.246v2.708c.004.072.03.142.07.203.026.064.087.11.158.12zm-1.02-3.03c.017-.09-.013-.182-.08-.246C5.696.998 5.6.97 5.508.986H3.942c-.06 0-.118.025-.16.068-.04.034-.066.083-.07.135l-.685 2.708v.22c.056.053.114.104.176.152.05.04.11.065.176.068h2.128c.1.007.2-.038.255-.12.046-.058.074-.13.08-.202V1.306zm5.42 4.552h3.484c.124-.004.24-.06.317-.154.096-.108.147-.247.14-.39H10.7c.04.148.118.282.228.39.085.093.206.148.335.153zm0 1.082h3.484c.124-.003.24-.06.317-.153.096-.11.147-.248.14-.39H10.7c.04.147.118.28.228.39.085.092.206.147.335.152zm0 1.083h1.232c.124-.003.24-.06.317-.153.096-.108.146-.247.14-.39H10.7c.04.148.118.282.228.39.085.093.206.148.335.153zm3.15 3.57c.33.004.648-.128.87-.363.246-.255.376-.593.362-.94-.002-.33-.13-.65-.36-.896-.21-.257-.533-.407-.872-.407-.334-.003-.653.13-.88.363-.493.537-.493 1.342 0 1.88.227.233.546.365.88.362z" fill="#FFF" fill-rule="evenodd"/></svg>
