<svg width="17" height="17" viewBox="0 0 17 17" xmlns="http://www.w3.org/2000/svg"><title>icon/interface/zoom</title><path d="M16.51 16.508c.296-.287.458-.687.445-1.1-.02-.457-.22-.888-.56-1.195l-2.79-2.79c.366-.603.663-1.246.884-1.916.222-.68.333-1.39.33-2.106.01-1.967-.77-3.856-2.165-5.246C11.978 1.484 11.18.95 10.303.58 8.448-.194 6.36-.194 4.506.58 2.73 1.317 1.318 2.73.58 4.505.19 5.42-.007 6.406 0 7.4c-.007 1.003.19 1.997.58 2.922.37.888.904 1.7 1.574 2.39.67.69 1.47 1.24 2.352 1.623.912.4 1.898.604 2.894.598.715.003 1.426-.11 2.106-.332.67-.22 1.314-.518 1.92-.885l2.787 2.79c.33.29.756.45 1.196.455.413.007.81-.158 1.1-.455v.003zM7.402 2.18c.727-.007 1.448.137 2.116.425 1.278.546 2.292 1.57 2.827 2.853.274.655.412 1.358.408 2.068.003.71-.142 1.41-.425 2.06-.275.636-.668 1.216-1.158 1.707-.488.488-1.065.877-1.7 1.148-1.32.558-2.808.558-4.128 0-.637-.266-1.214-.657-1.7-1.147-.485-.493-.874-1.072-1.148-1.707-.57-1.317-.57-2.812 0-4.13.275-.63.664-1.208 1.148-1.7.487-.49 1.064-.883 1.7-1.156.65-.284 1.35-.428 2.06-.425v.005z" fill="#fff" fill-rule="evenodd"/></svg>
